<?xml version="1.0" encoding="UTF-8"?><svg xmlns="http://www.w3.org/2000/svg" viewBox="0 0 109.86 95.72"><defs><style>.d{fill:#ba59dc;}.e{fill:#9700ca;}.f{fill:#c16adf;}.g{fill:#aa31d4;}</style></defs><g id="a"/><g id="b"><g id="c"><g><polygon class="g" points="40.06 6.81 39.54 54.09 29.67 47.97 25.11 45.14 14.85 38.76 15.02 23.59 25.41 17.67 25.25 32.22 29.81 35.07 30.18 1.5 40.06 6.81"/><polygon class="g" points="84.51 13.17 43.42 36.55 43.73 24.94 43.88 19.58 44.21 7.5 57.4 0 67.75 5.99 55.11 13.19 54.94 18.56 84.13 1.95 84.51 13.17"/><polygon class="f" points="100.32 55.53 59.62 31.47 69.86 25.97 74.58 23.43 85.23 17.73 98.29 25.45 98.23 37.41 85.71 30.01 80.96 32.54 109.86 49.62 100.32 55.53"/><polygon class="d" points="70.29 89.69 69.62 42.42 79.64 48.29 84.27 51 94.69 57.12 94.9 72.29 84.66 78.47 84.46 63.92 79.83 61.19 80.3 94.76 70.29 89.69"/><polygon class="e" points="26.08 83.55 66.29 58.67 66.4 70.29 66.46 75.65 66.56 87.73 53.66 95.72 43.1 90.11 55.47 82.45 55.43 77.08 26.88 94.75 26.08 83.55"/><polygon class="e" points="9.41 40.56 50.64 63.69 40.53 69.42 35.87 72.06 25.35 78.01 12.12 70.59 11.91 58.63 24.6 65.74 29.28 63.11 0 46.68 9.41 40.56"/></g></g></g></svg>