<?xml version="1.0" encoding="UTF-8"?><svg id="Layer_2" xmlns="http://www.w3.org/2000/svg" viewBox="0 0 63.73 63.15"><defs><style>.cls-1{fill:#ee5323;}.cls-2{fill:#e7ded6;}.cls-3{fill:#d5b436;}.cls-4{opacity:.54;}</style></defs><g id="Layer_1-2"><g><rect class="cls-4" x="2.52" y="1.94" width="61.21" height="61.21" rx="16.78" ry="16.78"/><rect class="cls-2" width="61.21" height="61.21" rx="16.78" ry="16.78"/><g><path class="cls-1" d="m26.52,4.87h-4.68v12.22h-6.4c-.03.67-.29.95-.73.96v2.07c.43.03.63.39.7.92h6.43s.05,10.24,0,13.66c-.12,8.94,4.13,13.27,12.48,13.62v-3.79c-4.75-.09-7.6-2.87-7.93-7.99-.25-3.88.03-15.57.03-15.57l7.89.06c-.27-1.55-1.7-2.42-4.74-2.32v-1.69h-3.15l.1-12.16Z"/><path class="cls-1" d="m44.11,38.67l-2.25-.46c-.14.59-.46.79-.94.69-.26,1.71-1.07,3.3-2.67,4.72v4.7c3.68-1.84,6.07-4.55,6.57-8.54-.47-.21-.71-.57-.71-1.11"/><path class="cls-3" d="m29.58,17.03h15.1v1.6c-3.13-.1-4.74.93-4.98,3l-.1,27.43c.07,2.62,2,3.52,5.08,3.33v1.68h-15.1v-1.75c3.82.33,4.86-1.25,5.01-3.43l-.05-27.28c-.41-2.41-2.35-3.05-4.96-2.89v-1.69Z"/></g></g></g></svg>