<?xml version="1.0" encoding="UTF-8"?><svg id="Layer_2" xmlns="http://www.w3.org/2000/svg" viewBox="0 0 324.37 93.04"><defs><style>.cls-1{fill:none;}.cls-2{fill:#231f20;}</style></defs><g id="Layer_1-2"><path class="cls-2" d="m201.9,53.36c-.87-.72-1.59-1.57-2.08-2.59-.36-.76-.69-1.53-1.04-2.28-.26-.55-.52-1.1-.81-1.63-.16-.29-.4-.54-.77-.55-.46-.01-.91,0-1.31.26,0,.1-.02.18,0,.24.4.99.8,1.97,1.2,2.95.38.92.89,1.77,1.58,2.49.86.91,1.9,1.42,3.19,1.28,0-.06.01-.12.02-.17Z"/><path class="cls-2" d="m45.88,70.18c-.05.1-.1.21-.15.31.08,1.52.2,3.03.23,4.55.07,3.02-.02,6.03-.17,9.04-.03.52-.07,1.04-.1,1.61h2c-.3-5.17-.29-10.3,0-15.51h-1.82Z"/><path class="cls-2" d="m59.63,85.77s.06,0,.09,0c-.02-.01-.03-.03-.05-.04-.02-.4-.06-.81-.06-1.21,0-2.64,0-5.27.01-7.91,0-.19-.02-.39-.04-.62h-1.48l-.16.12c0,1.65.01,3.3-.04,4.95-.02.7-.13,1.42-.31,2.09-.23.86-.79,1.48-1.7,1.67-1.62.35-2.83-.53-3-2.17-.03-.3-.02-.61-.02-.91,0-1.9,0-3.8,0-5.73h-1.63c-.02.12-.06.22-.06.32,0,2.26-.02,4.52.01,6.78,0,.39.15.79.31,1.16.84,2.08,4.47,2.47,5.89.62.13-.17.27-.32.41-.48l.14.06v1.3c.61,0,1.15,0,1.68,0Z"/><path class="cls-2" d="m104.42,30.02c.34-.17.69-.34,1.03-.51-.03-.06-.06-.12-.08-.18-.38.17-.75.34-1.13.51-.26.1-.53.19-.78.3-2.13.92-4.15,2.04-6.09,3.32-3.91,2.57-7.43,5.59-10.62,9-2.32,2.48-4.39,5.14-5.96,8.16-1.16,2.24-1.93,4.56-1.8,7.14.07,1.33.46,2.48,1.28,3.49,1.34,1.63,3.14,2.45,5.19,2.79.19.05.4.19.62-.1-.24-.07-.43-.13-.61-.18-.37-.23-.74-.45-1.1-.68-1.51-.95-2.52-2.28-3.01-3.99-.52-1.84-.36-3.65.21-5.47,1.1-3.5,3.03-6.54,5.3-9.37,1.58-1.96,3.3-3.81,5.21-5.46,1.52-1.31,3.04-2.63,4.63-3.86,2.41-1.88,5-3.49,7.72-4.9Z"/><path class="cls-2" d="m142.65,30.02c.34-.17.69-.34,1.03-.51-.03-.06-.06-.12-.08-.18-.38.17-.75.34-1.13.51-2.11.78-4.07,1.86-5.98,3.04-3.98,2.47-7.54,5.47-10.8,8.81-2.5,2.56-4.73,5.32-6.45,8.48-1.29,2.37-2.2,4.85-2.02,7.63.08,1.27.41,2.4,1.21,3.38,1.39,1.71,3.25,2.55,5.39,2.88.11.02.22-.01.37-.03-.78-.49-1.54-.9-2.22-1.42-1.47-1.11-2.3-2.62-2.59-4.43-.25-1.56-.07-3.07.41-4.58,1.12-3.49,2.97-6.57,5.29-9.37,1.63-1.98,3.37-3.88,5.33-5.56,1.53-1.31,3.04-2.63,4.63-3.86,2.38-1.84,4.92-3.44,7.6-4.81Z"/><path class="cls-2" d="m94.98,85.56c-.11-.65-.25-1.29-.33-1.94-.16-1.28-.29-2.56-.42-3.84-.19-1.81-.35-3.63-.56-5.44-.11-1-.28-1.99-.44-2.98,0-.03-.07-.06-.19-.15-.65.84-1.05,1.83-1.55,2.74-.53.96-1.05,1.92-1.57,2.88-.51.94-1.01,1.88-1.51,2.82-.51.95-1.03,1.9-1.62,2.99-.32-.63-.56-1.13-.81-1.61-1.59-3.07-3.18-6.14-4.78-9.2-.08-.16-.15-.33-.27-.46-.1-.11-.27-.16-.5-.28-.07.53-.13.96-.18,1.38-.16,1.33-.3,2.66-.47,3.99-.12.95-.29,1.9-.43,2.86-.3,1.95-.6,3.91-.89,5.86-.02.17-.02.33-.03.51h1.44c.34-3.4.68-6.73,1.02-10.07.05-.01.1-.03.16-.04.58,1.14,1.16,2.28,1.74,3.42.59,1.15,1.17,2.31,1.77,3.46.59,1.13,1.09,2.3,1.83,3.56.5-1.03.92-1.88,1.35-2.74.44-.89.88-1.78,1.34-2.66.45-.86.9-1.71,1.38-2.55.48-.84.81-1.76,1.36-2.56.06.01.12.03.17.04.32,3.39.65,6.77.98,10.23h1.97s.07,0,.11,0l-.09-.22Z"/><path class="cls-2" d="m25.51,17.74c-.12,0-.25,0-.37.01.08.07.16.14.23.21,1.23.41,2.33,1.04,3.24,1.95,1.07,1.07,1.41,2.36.97,3.85-.38,1.28-.97,2.45-1.79,3.51-1.57,2.04-3.5,3.68-5.65,5.08-.33.22-.68.42-1.11.7.32.22.54.37.76.53,1,.71,2.03,1.37,2.98,2.13,2.2,1.75,3.97,3.86,5.16,6.43,1.01,2.18,1.36,4.48,1.02,6.84-.26,1.78-.79,3.51-1.66,5.13-1.98,3.68-4.23,7.19-6.66,10.58-3.84,5.37-7.95,10.51-12.56,15.24-.08.08-.1.23-.14.34.9-.59,1.72-1.23,2.52-1.9,1.59-1.32,3.2-2.6,4.52-4.21,1.56-1.91,3.14-3.81,4.65-5.75,3.3-4.24,6.37-8.63,9.06-13.29.52-.9,1.03-1.82,1.41-2.79.39-.97.67-2,.9-3.03.28-1.23.27-2.5.1-3.75-.33-2.45-1.27-4.65-2.87-6.55-2-2.35-4.36-4.26-7.13-5.66-.24-.12-.47-.26-.81-.45.33-.19.54-.32.76-.43,2.82-1.4,5.07-3.46,7.04-5.87.86-1.06,1.46-2.25,1.75-3.6.21-.99,0-1.88-.7-2.61-.33-.35-.7-.68-1.1-.93-1.39-.88-2.92-1.41-4.53-1.7Z"/><path class="cls-2" d="m58.71,46.84c.68-.32,1.41-.58,2.05-.98,2.03-1.3,3.76-2.94,5.18-4.89,1.02-1.4,1.74-2.92,1.68-4.71-.02-.64-.22-.95-.82-1.11-.41-.11-.85-.16-1.28-.19-.18-.01-.36.08-.6.13.37.63.69,1.18.61,1.84-.19,1.56-.73,2.99-1.59,4.31-1.22,1.89-2.86,3.35-4.63,4.7-.22.17-.41.37-.61.56-.37.05-.33-.27-.39-.45-.65-1.96-.78-3.92-.07-5.9.96-2.67,2.73-4.55,5.43-5.5.4-.14.86-.12,1.26-.26.94-.34,1.86-.28,2.76.06.39.15.84.36,1.05.69.27.42.47.98.44,1.47-.05.77-.26,1.54-.51,2.28-.36,1.07-.98,2-1.65,2.91-1.58,2.15-3.63,3.76-5.89,5.13-.18.11-.35.24-.67.46.45.08.72.17.99.18.74.03,1.48.08,2.21.01.67-.06,1.37-.16,2-.39,1.9-.68,3.53-1.8,4.97-3.2,2.18-2.11,4.16-4.39,5.88-6.9,1.08-1.59,1.99-3.25,2.71-5.02.47-1.15.86-2.33.94-3.59.08-1.27-.52-2.06-1.63-2.57-1.35-.62-2.8-.69-4.24-.75-.32-.01-.64.1-.97.14-.6.07-1.21.09-1.8.22-3.07.67-5.88,1.95-8.46,3.74-2.81,1.94-5.24,4.28-7.45,6.86-1.33,1.55-2.54,3.18-3.42,5.04-1.33,2.83-1.65,5.77-1.04,8.84.42,2.12,1.4,3.96,2.62,5.71,2.8,4.02,6.65,6.58,11.31,7.99.53.16,1.07.33,1.62.35,1.4.06,2.8.07,4.2.04,1.73-.05,3.37-.5,4.87-1.38,1.24-.72,2.1-1.76,2.45-3.17.06-.23.05-.47.06-.69-.76-.15-1.42-.29-2.09-.41-2.55-.44-4.99-1.22-7.33-2.3-4.26-1.95-7.64-4.91-10.08-8.91-.06-.1-.04-.24-.06-.37Z"/><path class="cls-2" d="m324.37,39.31c-.08-1.75-.03-3.48-.43-5.22-.24-1.04-.37-2.13-.66-3.17-1.68-6.07-4.85-11.22-9.7-15.29-2.97-2.49-6.27-4.44-9.95-5.71-3.25-1.12-6.58-1.76-10.04-1.69-1.75.04-3.49.05-5.24.39-1.17.22-2.36.4-3.5.72-6.96,1.99-12.58,5.93-16.83,11.76-2.97,4.08-4.83,8.62-5.51,13.64-.45,3.29-.47,6.58.11,9.84.55,3.09,1.48,6.05,2.95,8.86,1.83,3.5,4.25,6.51,7.13,9.16,2.08,1.91,4.48,3.34,7,4.59,3.72,1.85,7.63,2.92,11.81,2.99.23,0,.45.07.68.08.69.02,1.37.04,2.06.03.48,0,.96-.06,1.44-.11,1.16-.12,2.35-.14,3.48-.39,1.68-.38,3.34-.86,4.97-1.43,6.15-2.15,10.94-6.09,14.71-11.32,1.92-2.66,3.3-5.59,4.24-8.74.54-1.8.86-3.64,1.11-5.49.16-1.15.12-2.33.17-3.5Z"/><path class="cls-2" d="m155.16,55.1c-.02,2.32.75,3.9,2.16,5.16,1.45,1.3,3.17,1.98,5.11,2.1,1.45.09,2.9.08,4.33-.28,2.25-.57,4.42-1.38,6.51-2.4,3.62-1.77,7.01-3.94,10.38-6.14,3.12-2.03,6.23-4.06,9.37-6.05,1.31-.83,2.69-1.55,4.22-1.93.87-.21,1.48-.03,1.99.71.29.41.52.87.74,1.33.57,1.19,1.06,2.43,1.7,3.58,1.07,1.92,2.84,2.56,5.03,2.08,1.75-.38,3.36-1.16,4.87-2.14.74-.48.99-1.14.85-1.96-.14-.85-.36-1.68-.87-2.4-.5-.7-1.01-1.4-1.54-2.09-.99-1.28-2.16-2.37-3.42-3.37-1-.79-2.01-1.56-3.05-2.29-.78-.55-1.68-.83-2.65-.89-1.6-.09-3.15.17-4.66.65-3.71,1.18-7.14,2.96-10.46,4.98-3.41,2.08-6.79,4.22-10.22,6.27-2.69,1.61-5.44,3.1-8.41,4.14-1.05.37-2.1.57-3.22.48-.71-.06-1.18-.44-1.52-1.02-.53-.92-.37-2.61.39-3.35.64-.61,1.34-1.18,2.07-1.67,1.83-1.22,3.81-2.16,5.82-3.02,2.41-1.03,4.86-1.97,7.3-2.93.67-.27,1.29-.58,1.77-1.14.88-1.02,1.8-2.01,2.64-3.06.71-.88,1.27-1.85,1.43-2.99.04-.31,0-.66-.1-.96-.29-.79-.95-1.16-1.75-1.29-1.5-.24-2.92.13-4.31.62-2.34.81-4.56,1.9-6.64,3.24-3.78,2.43-7.32,5.17-10.46,8.4-1.38,1.42-2.7,2.92-3.72,4.63-.99,1.66-1.75,3.39-1.71,4.98Z"/><path class="cls-2" d="m24.73,32.81c.13.14.17.21.23.25.28.18.56.36.84.53,2.33,1.46,4.4,3.2,6.06,5.41,1.42,1.88,2.39,3.98,2.78,6.29.31,1.81.05,3.64-.41,5.42-.33,1.29-.86,2.5-1.52,3.65-.94,1.63-1.88,3.26-2.88,4.85-1.93,3.09-4.04,6.04-6.27,8.92-2.84,3.66-5.69,7.31-8.93,10.63-.37.38-.7.8-1.05,1.2.04.04.08.07.12.11.19-.15.39-.29.58-.45,2.36-2.02,4.71-4.05,7.06-6.07,3.56-3.06,6.83-6.41,10.02-9.84,2.36-2.53,4.58-5.19,6.6-8,1.71-2.38,3.28-4.85,4.16-7.67.34-1.1.59-2.26.68-3.41.18-2.33-.4-4.54-1.38-6.64-1.19-2.56-3.12-4.51-5.38-6.13-1.19-.86-2.46-1.62-3.7-2.43.51-.57,1.08-1.18,1.62-1.81,1.63-1.92,2.92-4.01,3.52-6.51.6-2.49-.08-4.57-1.83-6.34-1.5-1.52-3.28-2.65-5.23-3.52-1.94-.87-3.95-1.49-6.03-1.91-2.4-.48-4.83-.77-7.28-.63-1.92.11-3.85.29-5.74.61-2.47.41-4.85,1.14-7.08,2.33-1.2.64-2.28,1.44-3.18,2.46-1.02,1.15-1.46,2.44-.81,3.93.51,1.18,1.34,2.09,2.5,2.68.29.15.58.29.97.47.08-.19.22-.38.21-.56-.02-.64.22-1.17.71-1.53.63-.47,1.27-.96,1.99-1.25,2.06-.85,4.2-1.37,6.44-1.41.15,0,.3-.04.45-.06.45-.07.89-.18,1.34-.21.76-.04,1.53-.03,2.29-.03,1.32,0,2.65-.04,3.97.06,1.34.1,2.67.34,4,.55,1.9.3,3.75.76,5.43,1.72.67.39,1.32.88,1.85,1.44.92.97,1.22,2.15.84,3.46-.31,1.05-.74,2.06-1.38,2.96-1.44,2.04-3.19,3.76-5.25,5.17-.63.43-1.26.84-1.94,1.3Z"/><path class="cls-2" d="m125.67,28.76c-.37-.17-.57-.27-.78-.35-1.98-.75-4.04-1.04-6.14-1.09-1.91-.04-3.8.21-5.66.63-4.11.92-7.93,2.57-11.48,4.84-2.8,1.79-5.36,3.88-7.82,6.09-2.96,2.67-5.65,5.58-7.82,8.93-1.68,2.6-3.13,5.29-3.34,8.48-.06.9-.02,1.78.22,2.63.55,2.03,1.96,3.34,3.83,4.19,1.65.75,3.39,1.04,5.2.96,1.12-.05,2.16-.32,3.13-.87,1.77-1.01,2.83-2.6,3.58-4.42.33-.81.66-1.64.69-2.61-.26-.02-.48-.06-.7-.04-.98.06-1.93-.09-2.87-.32-1.59-.38-3.02-1.07-4.15-2.28-1.49-1.58-1.79-3.3-.85-5.26.56-1.17,1.26-2.28,2.27-3.12,1.08-.89,2.13-1.84,3.3-2.59,2.18-1.39,4.36-2.84,7.04-3.13,1.06-.12,2.11-.31,3.16-.37.81-.04,1.62.09,2.43.14,2.34.14,4.67.28,6.98.71.72.13,1.45.19,2.16.29,1.27-1.88,2.54-3.75,3.79-5.64,1.27-1.9,2.52-3.8,3.84-5.81Z"/><path class="cls-2" d="m163.85,28.74c-.31-.14-.53-.25-.76-.34-1.95-.74-4-1.05-6.06-1.07-2.43-.03-4.82.32-7.16.98-3.5,1-6.81,2.42-9.87,4.4-2.66,1.71-5.14,3.67-7.5,5.76-3.21,2.85-6.13,5.97-8.45,9.59-1.61,2.52-2.97,5.14-3.2,8.21-.07.9,0,1.78.24,2.63.56,2.06,1.98,3.39,3.88,4.24,1.6.71,3.29.99,5.06.94,1.75-.05,3.23-.64,4.49-1.81,1.63-1.51,2.47-3.45,2.95-5.57.04-.16,0-.33,0-.53-.26-.01-.49-.04-.71-.03-.98.07-1.93-.11-2.87-.33-1.59-.38-3.02-1.08-4.14-2.31-.62-.69-1.15-1.44-1.29-2.38-.14-.99-.06-1.94.45-2.85.69-1.23,1.41-2.42,2.51-3.33.96-.79,1.93-1.58,2.95-2.3,1.54-1.1,3.22-1.95,4.96-2.68,1.55-.65,3.21-.78,4.85-.88,1.21-.07,2.44.09,3.65.16.81.04,1.63.05,2.44.15,1.99.25,3.97.54,6.02.82,2.44-3.8,5.11-7.5,7.55-11.47Z"/><path class="cls-2" d="m13.38,50.31c.16-.43.27-.68.35-.93.14-.45.21-.92.4-1.35.71-1.62,1-3.35,1.24-5.08.24-1.73.33-3.49.46-5.23.04-.61.04-1.22,0-1.83-.12-1.64-.27-3.27-.42-4.9-.03-.35-.05-.71-.12-1.06-.09-.44-.29-.87-.31-1.31-.09-1.55-.57-2.98-1.17-4.38-.23-.53-.56-1.03-.93-1.48-.97-1.15-2.37-1.06-3.2.18-.18.27-.32.58-.42.89-.42,1.26-.57,2.57-.59,3.9-.04,2.11.14,4.21.3,6.31.09,1.11.34,2.19.44,3.3.05.53.11,1.06.23,1.57.28,1.18.59,2.35.9,3.52.65,2.41,1.42,4.77,2.41,7.06.1.22.23.43.43.82Z"/><path class="cls-2" d="m62.57,63.93c-.31-.15-.61-.31-.92-.45-1.5-.7-2.97-1.46-4.31-2.44-3.28-2.41-5.76-5.43-7.25-9.23-.4-1.02-.62-2.07-.75-3.15-.19-1.66-.14-3.3.36-4.9.27-.87.51-1.77.89-2.59.81-1.7,1.78-3.31,3-4.77,2.66-3.18,5.63-6.02,9.13-8.26.72-.46,1.45-.91,2.18-1.37-.24-.05-.45,0-.65.07-1.72.72-3.36,1.6-4.89,2.66-3.12,2.16-5.79,4.8-8.18,7.74-2.56,3.15-4.23,6.63-3.99,10.82.1,1.7.43,3.35,1.16,4.86,2.21,4.58,5.74,7.83,10.33,9.97,1.23.57,2.5.96,3.89,1.05Z"/><path class="cls-2" d="m9.65,50.39c.06,0,.12-.01.18-.02.2-.56.36-1.14.6-1.69.29-.65.16-1.25-.05-1.89-.64-1.98-1.28-3.96-1.82-5.97-.81-3.03-1.17-6.13-1.38-9.25-.11-1.64-.09-3.3,0-4.95.04-.87.3-1.75.52-2.6.15-.58.42-1.12.63-1.69-1.38-.33-1.99.08-2.61,1.41-.05.11-.11.23-.13.36-.14.59-.31,1.18-.4,1.78-.49,3.15,0,6.28.19,9.42.06,1.05.35,2.08.55,3.12.74,3.9,1.87,7.69,3.38,11.37.09.22.23.41.35.61Z"/><path class="cls-2" d="m155.05,79.27c0,.31,0,.61,0,.9.04,1.24.09,2.48.11,3.73.01.64-.03.67-.61.88-1.33.48-2.73.51-4.08.3-2.42-.38-3.96-1.9-4.58-4.25-.38-1.44-.32-2.91.04-4.37.32-1.28.93-2.35,1.99-3.16,1.14-.88,2.49-1.21,3.86-1.17,1.53.04,2.95.53,4.06,1.68.16.17.37.3.7.55.05-.79.46-1.34.27-2.01-2.55-1.18-5.19-1.46-7.9-.77-2.27.58-3.97,1.9-4.87,4.13-.47,1.16-.53,2.36-.51,3.59.02,1.52.48,2.89,1.39,4.1,1.03,1.37,2.41,2.28,4.11,2.49,1.28.16,2.59.13,3.88.13,1.21,0,2.37-.31,3.51-.65.49-.15.53-.28.53-.77-.01-1.37,0-2.74.01-4.11,0-.4,0-.79,0-1.22h-1.93Z"/><path class="cls-2" d="m173.64,34.37s-.02-.05-.02-.07c-.14.02-.3.02-.43.08-.93.41-1.88.79-2.78,1.26-3.15,1.64-6.07,3.62-8.82,5.86-2.61,2.12-5.07,4.4-7.14,7.07-1.34,1.73-2.43,3.58-2.83,5.76-.36,1.97,0,3.79,1.31,5.36,1.07,1.3,2.46,2.12,4.07,2.56.53.15,1.08.37,1.67.21-.3-.25-.62-.43-.95-.61-3.65-1.93-4.95-5.48-3.54-9.36.82-2.27,2.1-4.28,3.75-6.05,3.75-4.02,7.98-7.46,12.69-10.31.99-.6,2.01-1.17,3.02-1.75Z"/><path class="cls-2" d="m120.11,85.7c-.04-.42-.1-.79-.1-1.16-.01-1.57,0-3.15,0-4.72,0-.71.21-1.36.6-1.93.58-.85,1.45-1.09,2.41-.96.82.11,1.39.62,1.62,1.42.14.48.25.99.25,1.48.03,1.95.01,3.89.01,5.87h1.67c.02-.14.04-.24.04-.34,0-1.29,0-2.59,0-3.88,0-.94.03-1.88-.02-2.82-.08-1.38-.88-2.39-2.13-2.78-1.56-.48-2.91-.1-4.04,1.07-.11.11-.23.21-.46.41v-1.34h-1.72v9.69h1.87Z"/><path class="cls-2" d="m134.32,77.92c.44-.43.38-.98.54-1.44.03-.07-.19-.28-.33-.35-.98-.45-1.99-.62-3.04-.31-1.03.31-1.86.89-2.16,1.97-.44,1.56-.08,2.75,1.34,3.38.49.22.99.39,1.49.59.35.14.73.25,1.05.44,1.06.63,1.05,2.04,0,2.68-.71.44-1.45.47-2.17.06-.35-.2-.64-.49-.96-.75-.18-.14-.35-.29-.62-.51-.17.69-.31,1.23-.44,1.75,1.39.67,2.81.81,4.08.44.7-.21,1.31-.57,1.77-1.14,1.08-1.32,1.15-3.37-.97-4.26-.49-.21-1.01-.34-1.51-.53-.38-.15-.77-.29-1.09-.52-.75-.52-.84-1.51-.24-2.2.75-.86,1.85-.87,2.66,0,.2.22.38.45.6.71Z"/><path class="cls-2" d="m166.95,53.11c.26-.07.54-.1.78-.21,1.59-.75,3.22-1.43,4.73-2.3,2.91-1.67,5.77-3.43,8.63-5.2,3.01-1.86,6-3.75,9.19-5.3.12-.06.23-.16.35-.23-.29-.05-.53,0-.75.11-1.94.95-3.93,1.83-5.8,2.89-2.56,1.46-5.04,3.07-7.56,4.6-3.15,1.91-6.25,3.92-9.56,5.63Z"/><path class="cls-2" d="m302.69,77.51c-1.46.97-2.89,1.99-4.39,2.9-4.22,2.54-8.68,4.6-13.29,6.31-4.56,1.69-9.19,3.14-13.95,4.17-1.31.29-2.64.49-3.95.77-1.84.4-3.71.55-5.56.81-1.18.17-2.36.33-3.55.29-.3,0-.6-.02-.9-.02-.35,0-.71,0-.97.3h-15.75l-2.03-.26c-2.37,0-4.72-.31-7.07-.62-1.18-.15-2.38-.21-3.57-.35-1.13-.14-2.25-.34-3.37-.51-.78-.12-1.55-.27-2.34-.35-2.17-.22-4.28-.74-6.41-1.17-2.43-.5-4.86-1.06-7.27-1.67-5.62-1.44-11.15-3.19-16.48-5.5-1.98-.86-3.9-1.87-5.84-2.82-.28-.14-.59-.28-.68-.63,3.74-1.14,7.35-2.48,10.84-4.16,3.14-1.52,6.22-3.15,9.12-5.11,2.67-1.81,5.13-3.85,7.35-6.18,2.41-2.54,4.48-5.33,5.9-8.56,1.22-2.77,1.89-5.66,1.96-8.71.09-3.46-.75-6.68-2.14-9.8-1.1-2.48-2.67-4.67-4.38-6.76-2.16-2.64-4.77-4.79-7.49-6.82-4.02-3-8.45-5.28-13.06-7.22-4.28-1.8-8.67-3.26-13.18-4.33-2.89-.68-5.82-1.2-8.74-1.78-1.05-.21-2.1-.4-3.16-.53-1.39-.17-2.78-.27-4.17-.41-.32-.03-.64-.09-.96-.13-.38-.05-.76-.1-1.13-.13-1.21-.1-2.43-.2-3.64-.29-.1,0-.2-.01-.31-.01-3.62,0-7.24-.07-10.86.03-1.57.04-3.17.11-4.71.34-1.35.2-2.71.14-4.06.48-1.25.31-2.57.28-3.85.48-4.16.66-8.29,1.5-12.34,2.65-2.66.76-5.31,1.6-7.89,2.6-2.63,1.01-5.17,2.26-7.76,3.4-.1.05-.22.06-.39.09.03-.4.31-.51.52-.67,2.33-1.83,4.84-3.38,7.42-4.82,4.86-2.71,9.99-4.82,15.26-6.59,3.98-1.34,8.04-2.41,12.15-3.29,2.2-.47,4.41-.89,6.64-1.24,2.1-.33,4.23-.53,6.34-.81,3.61-.48,7.23-.74,10.87-.8,4-.06,8-.13,12-.03,3.28.08,6.56.38,9.83.64,2.02.16,4.04.39,6.06.64,1.25.15,2.48.41,3.73.6.83.12,1.67.15,2.49.29,2.25.39,4.5.77,6.73,1.25,2.76.59,5.51,1.25,8.24,1.94,3.75.95,7.43,2.14,11.08,3.41,3.61,1.25,7.15,2.68,10.63,4.25,5.51,2.49,10.81,5.35,15.79,8.8.41.28.42.59.36.97-.13.88-.31,1.75-.4,2.63-.14,1.26-.3,2.53-.31,3.79-.01,2.29-.02,4.58.18,6.86.17,1.91.53,3.82.97,5.7,1.16,4.96,3.16,9.58,5.87,13.9,2.61,4.15,5.83,7.75,9.55,10.95,2.68,2.31,5.61,4.22,8.75,5.82,2.55,1.29,5.19,2.37,7.94,3.14,1.58.44,3.2.77,4.81,1.11,3.2.66,6.45.84,9.71.76,1.04-.02,2.08-.19,3.12-.28.03.1.06.2.09.3Z"/><path class="cls-2" d="m256.14,93.04c.26-.31.61-.3.97-.3.3,0,.6.01.9.02-.11.09-.23.19-.34.28h-1.53Z"/><path class="cls-2" d="m238.35,92.79l2.03.26h-1.99c-.01-.09-.03-.17-.04-.26Z"/><path class="cls-2" d="m324.37,39.31c-.05,1.17-.02,2.34-.17,3.5-.25,1.85-.57,3.69-1.11,5.49-.94,3.15-2.31,6.08-4.24,8.74-3.77,5.23-8.56,9.17-14.71,11.32-1.63.57-3.29,1.05-4.97,1.43-1.13.26-2.32.28-3.48.39-.48.05-.96.1-1.44.11-.69.01-1.37,0-2.06-.03-.23,0-.45-.07-.68-.08-4.17-.07-8.09-1.14-11.81-2.99-2.52-1.25-4.93-2.68-7-4.59-2.89-2.65-5.31-5.66-7.13-9.16-1.47-2.81-2.4-5.77-2.95-8.86-.58-3.27-.56-6.55-.11-9.84.68-5.02,2.55-9.56,5.51-13.64,4.25-5.83,9.87-9.77,16.83-11.76,1.14-.33,2.33-.5,3.5-.72,1.75-.34,3.48-.35,5.24-.39,3.46-.07,6.79.58,10.04,1.69,3.68,1.27,6.99,3.22,9.95,5.71,4.84,4.06,8.01,9.22,9.7,15.29.29,1.04.41,2.13.66,3.17.41,1.74.35,3.47.43,5.22Z"/><path class="cls-2" d="m155.16,55.1c-.04-1.59.72-3.32,1.71-4.98,1.02-1.71,2.34-3.21,3.72-4.63,3.13-3.23,6.67-5.97,10.46-8.4,2.08-1.34,4.3-2.43,6.64-3.24,1.39-.48,2.81-.85,4.31-.62.8.13,1.46.5,1.75,1.29.11.29.14.65.1.96-.16,1.14-.72,2.12-1.43,2.99-.85,1.05-1.77,2.04-2.64,3.06-.48.56-1.1.88-1.77,1.14-2.44.96-4.89,1.9-7.3,2.93-2.01.86-4,1.8-5.82,3.02-.74.49-1.43,1.06-2.07,1.67-.77.74-.93,2.43-.39,3.35.34.58.81.96,1.52,1.02,1.11.09,2.17-.12,3.22-.48,2.98-1.04,5.73-2.53,8.41-4.14,3.43-2.06,6.8-4.19,10.22-6.27,3.31-2.02,6.74-3.79,10.46-4.98,1.52-.48,3.06-.75,4.66-.65.97.06,1.86.34,2.65.89,1.04.73,2.05,1.5,3.05,2.29,1.26.99,2.43,2.09,3.42,3.37.53.68,1.04,1.38,1.54,2.09.51.72.72,1.55.87,2.4.14.82-.12,1.48-.85,1.96-1.51.98-3.12,1.76-4.87,2.14-2.19.47-3.96-.17-5.03-2.08-.64-1.15-1.13-2.39-1.7-3.58-.22-.46-.45-.91-.74-1.33-.52-.74-1.13-.92-1.99-.71-1.53.38-2.91,1.1-4.22,1.93-3.14,1.99-6.25,4.02-9.37,6.05-3.37,2.19-6.76,4.37-10.38,6.14-2.08,1.02-4.25,1.83-6.51,2.4-1.42.36-2.87.37-4.33.28-1.94-.13-3.66-.81-5.11-2.1-1.41-1.26-2.18-2.84-2.16-5.16Z"/><path class="cls-2" d="m24.73,32.81c.68-.45,1.32-.87,1.94-1.3,2.06-1.41,3.81-3.13,5.25-5.17.64-.9,1.07-1.91,1.38-2.96.38-1.31.07-2.49-.84-3.46-.53-.56-1.18-1.05-1.85-1.44-1.68-.96-3.53-1.42-5.43-1.72-1.33-.21-2.66-.45-4-.55-1.32-.1-2.65-.05-3.97-.06-.76,0-1.53-.01-2.29.03-.45.02-.89.14-1.34.21-.15.02-.3.06-.45.06-2.24.04-4.39.56-6.44,1.41-.71.3-1.36.78-1.99,1.25-.49.36-.73.89-.71,1.53,0,.18-.14.37-.21.56-.38-.19-.68-.32-.97-.47-1.16-.59-1.98-1.5-2.5-2.68-.65-1.49-.21-2.77.81-3.93.9-1.02,1.98-1.82,3.18-2.46,2.22-1.19,4.61-1.92,7.08-2.33,1.9-.32,3.82-.5,5.74-.61,2.45-.14,4.88.15,7.28.63,2.08.41,4.09,1.04,6.03,1.91,1.95.87,3.73,2.01,5.23,3.52,1.75,1.77,2.43,3.86,1.83,6.34-.6,2.49-1.89,4.58-3.52,6.51-.54.64-1.11,1.24-1.62,1.81,1.24.81,2.5,1.57,3.7,2.43,2.26,1.63,4.18,3.57,5.38,6.13.98,2.1,1.56,4.32,1.38,6.64-.09,1.15-.34,2.31-.68,3.41-.88,2.82-2.44,5.29-4.16,7.67-2.02,2.81-4.25,5.47-6.6,8-3.19,3.43-6.46,6.78-10.02,9.84-2.36,2.02-4.71,4.05-7.06,6.07-.19.16-.39.3-.58.45-.04-.04-.08-.07-.12-.11.35-.4.68-.82,1.05-1.2,3.24-3.33,6.09-6.97,8.93-10.63,2.23-2.88,4.34-5.84,6.27-8.92,1-1.59,1.94-3.22,2.88-4.85.66-1.15,1.19-2.36,1.52-3.65.46-1.78.72-3.61.41-5.42-.39-2.31-1.36-4.4-2.78-6.29-1.66-2.21-3.73-3.95-6.06-5.41-.28-.18-.56-.35-.84-.53-.06-.04-.1-.11-.23-.25Z"/><path class="cls-2" d="m58.71,46.84c.02.12,0,.27.06.37,2.45,4,5.82,6.96,10.08,8.91,2.35,1.08,4.79,1.86,7.33,2.3.67.11,1.33.26,2.09.41-.02.21,0,.46-.06.69-.35,1.41-1.22,2.45-2.45,3.17-1.5.88-3.14,1.34-4.87,1.38-1.4.04-2.8.02-4.2-.04-.54-.02-1.09-.19-1.62-.35-4.66-1.41-8.5-3.97-11.31-7.99-1.22-1.74-2.2-3.59-2.62-5.71-.61-3.07-.29-6.01,1.04-8.84.88-1.86,2.09-3.49,3.42-5.04,2.21-2.58,4.64-4.92,7.45-6.86,2.59-1.79,5.39-3.07,8.46-3.74.59-.13,1.2-.14,1.8-.22.32-.04.65-.15.97-.14,1.44.06,2.89.13,4.24.75,1.11.51,1.71,1.3,1.63,2.57-.08,1.26-.47,2.44-.94,3.59-.72,1.77-1.63,3.43-2.71,5.02-1.72,2.51-3.7,4.79-5.88,6.9-1.44,1.4-3.08,2.51-4.97,3.2-.63.23-1.33.34-2,.39-.73.06-1.48.01-2.21-.01-.27,0-.54-.09-.99-.18.32-.22.49-.35.67-.46,2.26-1.37,4.31-2.98,5.89-5.13.67-.91,1.29-1.84,1.65-2.91.25-.74.46-1.51.51-2.28.03-.49-.17-1.05-.44-1.47-.21-.32-.66-.54-1.05-.69-.9-.34-1.82-.4-2.76-.06-.4.14-.86.12-1.26.26-2.7.95-4.47,2.83-5.43,5.5-.71,1.98-.58,3.94.07,5.9.06.18.02.51.39.45,0,.11,0,.23.01.34Z"/><path class="cls-2" d="m125.67,28.76c-1.32,2-2.58,3.91-3.84,5.81-1.25,1.88-2.52,3.75-3.79,5.64-.71-.09-1.44-.15-2.16-.29-2.31-.43-4.64-.57-6.98-.71-.81-.05-1.63-.18-2.43-.14-1.06.05-2.11.25-3.16.37-2.68.3-4.86,1.74-7.04,3.13-1.17.75-2.22,1.7-3.3,2.59-1.02.84-1.71,1.95-2.27,3.12-.93,1.95-.63,3.68.85,5.26,1.14,1.21,2.56,1.9,4.15,2.28.94.23,1.9.38,2.87.32.22-.01.44.03.7.04-.03.96-.35,1.79-.69,2.61-.75,1.82-1.8,3.42-3.58,4.42-.97.55-2,.82-3.13.87-1.82.08-3.55-.21-5.2-.96-1.87-.85-3.28-2.16-3.83-4.19-.23-.84-.27-1.72-.22-2.63.2-3.2,1.66-5.89,3.34-8.48,2.17-3.35,4.86-6.27,7.82-8.93,2.46-2.22,5.03-4.31,7.82-6.09,3.55-2.27,7.37-3.92,11.48-4.84,1.86-.42,3.75-.68,5.66-.63,2.09.05,4.16.34,6.14,1.09.21.08.41.18.78.35Z"/><path class="cls-2" d="m163.85,28.74c-2.44,3.96-5.11,7.67-7.55,11.47-2.04-.28-4.03-.58-6.02-.82-.81-.1-1.62-.1-2.44-.15-1.22-.06-2.44-.23-3.65-.16-1.64.1-3.3.22-4.85.88-1.74.74-3.42,1.59-4.96,2.68-1.01.72-1.99,1.51-2.95,2.3-1.1.9-1.83,2.1-2.51,3.33-.51.91-.6,1.87-.45,2.85.14.94.67,1.7,1.29,2.38,1.12,1.23,2.54,1.93,4.14,2.31.94.23,1.89.4,2.87.33.22-.02.45.02.71.03,0,.2.03.38,0,.53-.49,2.12-1.32,4.06-2.95,5.57-1.26,1.17-2.75,1.76-4.49,1.81-1.77.05-3.45-.23-5.06-.94-1.9-.85-3.32-2.18-3.88-4.24-.23-.85-.31-1.73-.24-2.63.23-3.07,1.59-5.69,3.2-8.21,2.32-3.63,5.24-6.75,8.45-9.59,2.37-2.1,4.84-4.05,7.5-5.76,3.06-1.97,6.37-3.4,9.87-4.4,2.34-.67,4.74-1.01,7.16-.98,2.07.02,4.11.33,6.06,1.07.23.09.45.2.76.34Z"/><path class="cls-2" d="m13.38,50.31c-.21-.39-.34-.6-.43-.82-.99-2.29-1.76-4.65-2.41-7.06-.31-1.17-.62-2.34-.9-3.52-.12-.51-.19-1.05-.23-1.57-.09-1.11-.35-2.19-.44-3.3-.17-2.1-.34-4.2-.3-6.31.02-1.33.17-2.63.59-3.9.1-.31.24-.62.42-.89.83-1.24,2.23-1.33,3.2-.18.37.44.71.95.93,1.48.6,1.4,1.08,2.84,1.17,4.38.03.44.23.87.31,1.31.07.35.09.7.12,1.06.14,1.63.29,3.27.42,4.9.04.61.05,1.22,0,1.83-.13,1.75-.22,3.5-.46,5.23-.24,1.73-.54,3.45-1.24,5.08-.19.43-.26.9-.4,1.35-.08.26-.19.5-.35.93Z"/><path class="cls-2" d="m25.51,17.74c1.61.29,3.14.82,4.53,1.7.4.26.77.58,1.1.93.69.74.91,1.62.7,2.61-.29,1.34-.89,2.53-1.75,3.6-1.96,2.41-4.22,4.48-7.04,5.87-.22.11-.43.24-.76.43.34.19.57.33.81.45,2.77,1.39,5.13,3.3,7.13,5.66,1.6,1.89,2.54,4.1,2.87,6.55.17,1.25.17,2.52-.1,3.75-.23,1.03-.51,2.05-.9,3.03-.38.96-.89,1.88-1.41,2.79-2.68,4.66-5.75,9.06-9.06,13.29-1.52,1.94-3.09,3.84-4.65,5.75-1.31,1.61-2.93,2.89-4.52,4.21-.8.66-1.62,1.31-2.52,1.9.05-.11.06-.26.14-.34,4.61-4.73,8.72-9.88,12.56-15.24,2.43-3.39,4.69-6.9,6.66-10.58.86-1.61,1.4-3.34,1.66-5.13.34-2.36-.02-4.66-1.02-6.84-1.19-2.57-2.96-4.68-5.16-6.43-.95-.76-1.98-1.42-2.98-2.13-.22-.16-.45-.31-.76-.53.43-.27.78-.48,1.11-.7,2.15-1.39,4.08-3.04,5.65-5.08.82-1.06,1.41-2.23,1.79-3.51.45-1.49.1-2.78-.97-3.85-.91-.91-2.01-1.54-3.24-1.95.05-.07.09-.15.14-.22Z"/><path class="cls-2" d="m94.96,85.77h-1.97c-.33-3.45-.66-6.84-.98-10.23-.06-.01-.12-.03-.17-.04-.55.8-.88,1.73-1.36,2.56-.48.84-.94,1.69-1.38,2.55-.46.88-.89,1.77-1.34,2.66-.42.85-.84,1.71-1.35,2.74-.74-1.25-1.24-2.43-1.83-3.56-.6-1.15-1.18-2.31-1.77-3.46-.58-1.14-1.16-2.28-1.74-3.42-.05.01-.1.03-.16.04-.34,3.33-.67,6.67-1.02,10.07h-1.44c0-.17,0-.34.03-.51.29-1.95.59-3.91.89-5.86.14-.95.31-1.9.43-2.86.17-1.33.31-2.66.47-3.99.05-.42.11-.85.18-1.38.23.12.4.17.5.28.12.12.19.3.27.46,1.59,3.07,3.19,6.14,4.78,9.2.25.49.49.98.81,1.61.59-1.08,1.11-2.03,1.62-2.99.51-.94,1-1.88,1.51-2.82.52-.96,1.04-1.92,1.57-2.88.51-.92.9-1.9,1.55-2.74.12.09.18.12.19.15.15.99.32,1.98.44,2.98.2,1.81.37,3.63.56,5.44.13,1.28.26,2.56.42,3.84.08.65.22,1.29.33,1.94,0,.07-.02.14-.02.21Z"/><path class="cls-2" d="m62.57,63.93c-1.39-.09-2.66-.48-3.89-1.05-4.59-2.14-8.12-5.39-10.33-9.97-.73-1.51-1.06-3.16-1.16-4.86-.24-4.19,1.43-7.67,3.99-10.82,2.39-2.94,5.06-5.58,8.18-7.74,1.53-1.06,3.17-1.94,4.89-2.66.19-.08.41-.12.65-.07-.73.46-1.46.91-2.18,1.37-3.51,2.25-6.47,5.09-9.13,8.26-1.22,1.45-2.19,3.06-3,4.77-.39.82-.63,1.71-.89,2.59-.49,1.6-.55,3.24-.36,4.9.12,1.08.35,2.13.75,3.15,1.49,3.8,3.97,6.82,7.25,9.23,1.34.99,2.81,1.74,4.31,2.44.31.14.61.3.92.45Z"/><path class="cls-2" d="m142.65,30.02c-2.68,1.37-5.23,2.97-7.6,4.81-1.59,1.23-3.11,2.55-4.63,3.86-1.96,1.67-3.69,3.57-5.33,5.56-2.31,2.81-4.17,5.88-5.29,9.37-.48,1.51-.66,3.02-.41,4.58.29,1.81,1.12,3.32,2.59,4.43.68.51,1.44.92,2.22,1.42-.15.01-.26.04-.37.03-2.13-.33-4-1.18-5.39-2.88-.79-.98-1.13-2.11-1.21-3.38-.18-2.78.73-5.25,2.02-7.63,1.71-3.15,3.95-5.91,6.45-8.48,3.26-3.35,6.82-6.34,10.8-8.81,1.9-1.18,3.87-2.26,5.98-3.04.06.06.12.12.18.18Z"/><path class="cls-2" d="m85.46,64.04c-2.05-.34-3.85-1.16-5.19-2.79-.82-1-1.21-2.16-1.28-3.49-.13-2.58.63-4.91,1.8-7.14,1.57-3.02,3.64-5.68,5.96-8.16,3.19-3.41,6.72-6.43,10.62-9,1.94-1.27,3.96-2.39,6.09-3.32.26-.11.52-.2.78-.3.06.06.12.12.18.18-2.72,1.41-5.31,3.02-7.72,4.9-1.58,1.24-3.1,2.55-4.63,3.86-1.91,1.65-3.63,3.5-5.21,5.46-2.27,2.82-4.2,5.87-5.3,9.37-.57,1.82-.73,3.63-.21,5.47.48,1.71,1.5,3.04,3.01,3.99.37.23.73.46,1.1.68,0,.1,0,.19,0,.29Z"/><path class="cls-2" d="m155.05,79.27h1.93c0,.43,0,.82,0,1.22,0,1.37-.02,2.74-.01,4.11,0,.49-.04.62-.53.77-1.15.34-2.31.66-3.51.65-1.3,0-2.6.03-3.88-.13-1.71-.21-3.08-1.12-4.11-2.49-.91-1.21-1.37-2.58-1.39-4.1-.02-1.23.04-2.44.51-3.59.9-2.23,2.6-3.54,4.87-4.13,2.71-.69,5.35-.41,7.9.77.19.68-.22,1.22-.27,2.01-.33-.26-.54-.38-.7-.55-1.11-1.15-2.54-1.64-4.06-1.68-1.38-.04-2.72.3-3.86,1.17-1.05.81-1.67,1.89-1.99,3.16-.36,1.46-.42,2.93-.04,4.37.62,2.35,2.16,3.87,4.58,4.25,1.34.21,2.75.19,4.08-.3.58-.21.62-.24.61-.88-.03-1.24-.08-2.48-.11-3.73,0-.3,0-.6,0-.9Z"/><path class="cls-2" d="m173.64,34.37c-1.01.58-2.02,1.15-3.02,1.75-4.71,2.85-8.94,6.29-12.69,10.31-1.65,1.77-2.93,3.78-3.75,6.05-1.41,3.88-.11,7.43,3.54,9.36.33.17.65.36.95.61-.6.16-1.14-.06-1.67-.21-1.61-.44-2.99-1.26-4.07-2.56-1.3-1.57-1.67-3.39-1.31-5.36.4-2.18,1.49-4.03,2.83-5.76,2.07-2.67,4.53-4.95,7.14-7.07,2.75-2.23,5.67-4.22,8.82-5.86.9-.47,1.85-.85,2.78-1.26.13-.06.28-.05.43-.08,0,.02.02.05.02.07Z"/><path class="cls-2" d="m120.11,85.7h-1.87v-9.69h1.72v1.34c.23-.2.35-.3.46-.41,1.13-1.17,2.48-1.55,4.04-1.07,1.25.38,2.05,1.4,2.13,2.78.05.94.02,1.88.02,2.82,0,1.29,0,2.59,0,3.88,0,.1-.02.19-.04.34h-1.67c0-1.98.02-3.93-.01-5.87,0-.5-.12-1-.25-1.48-.23-.81-.8-1.31-1.62-1.42-.96-.13-1.84.11-2.41.96-.39.58-.6,1.22-.6,1.93.01,1.57,0,3.15,0,4.72,0,.37.06.75.1,1.16Z"/><path class="cls-2" d="m58.09,75.99h1.48c.02.23.04.42.04.62,0,2.64-.01,5.27-.01,7.91,0,.4.04.81.06,1.21h-.04s0,.04,0,.04h-1.68v-1.3l-.14-.06c-.14.16-.29.31-.41.48-1.42,1.86-5.05,1.46-5.89-.62-.15-.37-.3-.77-.31-1.16-.03-2.26-.01-4.52-.01-6.78,0-.1.03-.19.06-.32h1.63c0,1.93,0,3.83,0,5.73,0,.3-.01.61.02.91.16,1.64,1.38,2.52,3,2.17.91-.2,1.47-.82,1.7-1.67.18-.68.29-1.39.31-2.09.05-1.65.03-3.3.04-4.95.05-.04.1-.08.16-.12Z"/><path class="cls-2" d="m134.32,77.92c-.21-.25-.4-.49-.6-.71-.81-.87-1.91-.86-2.66,0-.6.69-.51,1.67.24,2.2.33.23.72.37,1.09.52.5.19,1.02.32,1.51.53,2.12.9,2.05,2.94.97,4.26-.46.57-1.07.93-1.77,1.14-1.27.37-2.69.23-4.08-.44.13-.52.27-1.06.44-1.75.26.22.44.37.62.51.32.25.61.55.96.75.72.41,1.46.37,2.17-.06,1.05-.64,1.06-2.05,0-2.68-.32-.19-.7-.3-1.05-.44-.5-.2-1-.37-1.49-.59-1.42-.64-1.78-1.82-1.34-3.38.3-1.08,1.13-1.66,2.16-1.97,1.05-.32,2.07-.14,3.04.31.14.06.35.28.33.35-.16.46-.1,1.01-.54,1.44Z"/><path class="cls-2" d="m45.88,70.18h1.82c-.29,5.21-.3,10.34,0,15.51h-2c.04-.56.08-1.09.1-1.61.15-3.01.24-6.03.17-9.04-.04-1.52-.15-3.03-.23-4.55.05-.1.1-.21.15-.31Z"/><path class="cls-2" d="m58.71,46.84c0-.11,0-.23-.01-.34.2-.19.39-.39.61-.56,1.77-1.35,3.4-2.81,4.63-4.7.86-1.32,1.41-2.75,1.59-4.31.08-.66-.24-1.21-.61-1.84.24-.06.42-.15.6-.13.43.04.86.08,1.28.19.6.16.8.48.82,1.11.07,1.79-.66,3.3-1.68,4.71-1.41,1.96-3.14,3.59-5.18,4.89-.63.4-1.36.66-2.05.98Z"/><path class="cls-2" d="m166.95,53.11c3.32-1.72,6.41-3.72,9.56-5.63,2.52-1.53,5-3.14,7.56-4.6,1.88-1.07,3.86-1.94,5.8-2.89.22-.11.46-.16.75-.11-.11.08-.22.17-.35.23-3.19,1.55-6.18,3.44-9.19,5.3-2.86,1.76-5.72,3.53-8.63,5.2-1.52.87-3.15,1.55-4.73,2.3-.24.11-.52.14-.78.21Z"/><path class="cls-2" d="m201.88,53.54c-1.29.14-2.33-.37-3.19-1.28-.69-.73-1.19-1.57-1.58-2.49-.41-.98-.81-1.97-1.2-2.95-.03-.06,0-.15,0-.24.4-.26.85-.27,1.31-.26.37.01.61.26.77.55.29.53.55,1.08.81,1.63.35.76.68,1.53,1.04,2.28.48,1.03,1.21,1.87,2.08,2.59,0,.06-.01.12-.02.17Z"/><path class="cls-2" d="m142.65,30.02c-.06-.06-.12-.12-.18-.18.38-.17.75-.34,1.13-.51.03.06.06.12.08.18-.34.17-.69.34-1.03.51Z"/><path class="cls-2" d="m104.42,30.02c-.06-.06-.12-.12-.18-.18.38-.17.75-.34,1.13-.51.03.06.06.12.08.18-.34.17-.69.34-1.03.51Z"/><path class="cls-2" d="m85.46,64.04c0-.1,0-.19,0-.29.19.06.37.11.61.18-.22.3-.42.16-.62.1Z"/><path class="cls-2" d="m302.69,77.51c-.03-.1-.06-.2-.09-.3.09.01.18.03.27.04-.06.09-.11.17-.17.26Z"/><path class="cls-2" d="m25.51,17.74c-.05.07-.09.15-.14.22-.08-.07-.16-.14-.23-.21.12,0,.25,0,.37-.01Z"/><path class="cls-2" d="m45.88,70.18c-.05.1-.1.21-.15.31.05-.1.1-.21.15-.31Z"/><path class="cls-2" d="m94.96,85.77c0-.07.02-.14.02-.21.03.07.06.15.09.22-.04,0-.07,0-.11,0Z"/><path class="cls-2" d="m58.09,75.99c-.05.04-.1.08-.16.12l.16-.12Z"/><path class="cls-2" d="m201.88,53.54c0-.06.01-.12.02-.17,0,.06-.01.12-.02.17Z"/><path class="cls-2" d="m59.66,85.73s.03.03.05.04c-.03,0-.06,0-.09,0,0,0,0-.04,0-.04h.04Z"/><path class="cls-1" d="m34.75,78.89s.02.08.04.11c0-.05,0-.1.01-.16-.02.01-.05.03-.05.04Z"/><path class="cls-2" d="m34.8,78.85c0,.05,0,.1-.01.16-.01-.04-.03-.08-.04-.11,0-.01.03-.03.05-.04Z"/><path class="cls-2" d="m64.85,80.83c1.83,0,3.66.02,5.5.02.22,0,.44-.02.69-.04,0-.59.05-1.12-.01-1.64-.1-.85-.43-1.62-1.04-2.24-1.9-1.91-5.76-1.63-7.15.73-.94,1.6-1.09,3.3-.66,5.07.38,1.58,2.08,3.07,3.93,3.29,1.31.15,2.58.01,3.75-.7.77-.47.88-.61.72-1.58-.53.34-1.03.75-1.6.98-.55.23-1.17.34-1.77.39-.65.05-1.26-.21-1.78-.59-1.23-.87-1.67-2.08-1.51-3.62.33-.03.63-.08.93-.08Zm2.48-4.27c.48.08.85.32,1.15.68.56.66.82,1.67.69,2.67h-5.07c-.3-1.91,1.39-3.65,3.22-3.34Z"/><path class="cls-2" d="m102.02,80.83c1.17-.02,2.33,0,3.59,0,0-.59.04-1.1,0-1.6-.09-.88-.42-1.68-1.06-2.31-1.89-1.9-5.76-1.62-7.16.75-.78,1.33-.98,2.75-.81,4.26.2,1.76,1.17,2.96,2.73,3.67,1.85.85,3.67.61,5.39-.44.55-.33.63-.69.37-1.42-1.51,1.24-3.12,1.97-5.01.83-1.03-.62-1.9-2.11-1.5-3.69,1.13-.12,2.3-.03,3.46-.05Zm-1.97-3.94c.99-.74,2.54-.41,3.2.63.43.69.59,1.4.5,2.37h-5.18c.07-1.25.5-2.27,1.47-3Z"/><path class="cls-2" d="m114.71,83.99c-.03-.76-.03-1.52-.01-2.28.02-.96.12-1.93.09-2.89-.04-1.33-.66-2.33-1.93-2.84-1.44-.59-2.8-.28-4.1.43-.9.49-.92.56-.74,1.86.28-.28.45-.44.62-.61.41-.44.9-.72,1.49-.86,1.61-.39,2.79.46,2.88,2.1.05.92-.02,1.07-.89,1.31-.76.2-1.54.33-2.31.47-1.62.31-2.45,1.09-2.69,2.55-.16,1,.38,2.07,1.33,2.5,1.32.6,2.58.4,3.77-.37.27-.18.53-.38.8-.59.33.54.67.97,1.36.98,1.17.02,1.25.02,1.49-.42-.79-.18-1.11-.52-1.15-1.34Zm-1.72-.65c0,.1-.01.2-.04.3-.27.91-1.94,1.75-2.83,1.41-.72-.28-1.17-.79-1.23-1.59-.05-.8.2-1.44.95-1.83.96-.5,2.03-.61,3.15-.84,0,.94,0,1.75,0,2.55Z"/><path class="cls-2" d="m168.46,77.65c-.12-.19-.28-.36-.44-.52-1.83-1.77-4.78-1.88-6.77-.52-2.68,1.82-2.4,5.84-1.11,7.53,1.03,1.35,2.42,1.97,4.12,1.9.2,0,.41,0,.61,0,1.9-.1,3.27-.99,4.06-2.73.13-.29.15-.63.25-.94.56-1.7.17-3.25-.72-4.72Zm-1.61,6.16c-.62,1.15-1.59,1.55-2.86,1.48-1.17-.07-1.93-.71-2.34-1.69-.79-1.87-.73-3.78.14-5.61.52-1.1,1.51-1.53,2.71-1.46,1.15.06,1.97.61,2.43,1.67.38.87.58,1.79.49,2.71.06,1.04-.09,2-.58,2.9Z"/><path class="cls-2" d="m42.05,80.57c-.25-.87-.77-1.49-1.58-1.85-.54-.24-1.13-.39-1.75-.6.48-.25.95-.48,1.41-.73,1.22-.68,1.73-2.19,1.52-3.41-.21-1.18-1.14-2.01-2.55-2.29-2.05-.41-4.11.04-6.2-.22v14.28c.54,0,1.07.03,1.6,0,1.11-.08,2.21.17,3.34.03.91-.11,1.75-.31,2.52-.78,1.57-.96,2.2-2.65,1.69-4.42Zm-6.54-8.2c.4-.06.83-.11,1.21-.03.69.14,1.44.24,2.01.61,1.44.92,1.35,3.26-.15,4.18-.54.34-1.21.53-1.85.65-.59.11-1.21.02-1.88.02,0-1.64,0-3.18,0-4.72,0-.45.27-.65.65-.71Zm4.58,10.04c-.45,1.71-1.53,2.56-3.31,2.57-.6,0-1.21-.03-1.9-.05-.03-2.03-.07-3.98-.1-5.92,0-.05,0-.1.01-.16.45-.04.9-.15,1.34-.11.75.07,1.52.16,2.24.38,1.41.43,2.09,1.82,1.7,3.29Z"/></g></svg>