<?xml version="1.0" encoding="UTF-8"?><svg id="Layer_2" xmlns="http://www.w3.org/2000/svg" viewBox="0 0 34.05 55.64"><defs><style>.cls-1{fill:#d4af34;}.cls-2{fill:#ef5323;}</style></defs><g id="Layer_1-2"><path class="cls-2" d="M13.36,0h-5.29V13.82H.83c-.03,.76-.33,1.07-.83,1.08v2.34c.49,.03,.71,.44,.79,1.04h7.27s.05,11.58,0,15.44c-.14,10.11,4.67,15.01,14.11,15.41v-4.28c-5.37-.11-8.6-3.25-8.96-9.04-.28-4.39,.04-17.6,.04-17.6l8.93,.07c-.31-1.76-1.92-2.74-5.36-2.63v-1.91h-3.56l.11-13.75Z"/><path class="cls-2" d="M33.25,38.23l-2.55-.52c-.16,.67-.52,.9-1.06,.78-.29,1.93-1.21,3.73-3.02,5.33v5.31c4.16-2.08,6.86-5.14,7.43-9.65-.53-.23-.8-.65-.8-1.25"/><path class="cls-1" d="M16.81,13.75h17.08v1.81c-3.54-.12-5.36,1.05-5.64,3.39l-.11,31.02c.08,2.96,2.26,3.98,5.75,3.77v1.9H16.81v-1.98c4.32,.37,5.49-1.41,5.67-3.88l-.06-30.85c-.47-2.73-2.65-3.45-5.61-3.26v-1.91Z"/></g></svg>