<?xml version="1.0" encoding="UTF-8"?><svg id="Layer_2" xmlns="http://www.w3.org/2000/svg" viewBox="0 0 50.26 74.73"><defs><style>.cls-1{fill:#231f20;stroke-width:0px;}</style></defs><g id="Layer_1-2"><path class="cls-1" d="m.43,4.4c.21-.15.46-.25.61-.44.75-.97,1.73-1.64,2.8-2.2C5.35.97,6.96.44,8.63.14c.22-.04.44-.03.71.1-.42.16-.85.32-1.26.5-.43.19-.85.39-1.26.6-1.07.55-2.07,1.19-2.88,2.1-1.33,1.5-1.6,3.18-.86,5.03.19.49.4.98.68,1.41.33.51.26.97.06,1.54-.22-.09-.41-.14-.57-.24-1.42-.93-2.42-2.17-2.84-3.84-.05-.22,0-.58-.41-.53.14-.8.29-1.61.43-2.41Z"/><path class="cls-1" d="m31.68,26.97c.85-.33,1.65-.63,2.43-.95,2.58-1.04,4.88-2.46,6.88-4.28.89-.81,1.56-1.75,2.1-2.78.67-1.27.54-2.56-.31-3.74-.5-.69-1.14-1.33-1.83-1.86-1.71-1.33-3.73-2.18-5.81-2.87-1.46-.49-2.92-1-4.42-1.38-1.47-.37-2.98-.59-4.48-.86-.86-.16-1.73-.32-2.59-.43-.51-.07-1.03-.04-1.55-.06-.17,0-.35,0-.52-.03-2.54-.41-5.06-.31-7.54.16-.86.16-1.68.54-2.47.89-.62.28-.99.78-1.08,1.44-.03.19-.22.35-.34.53-.4-.27-.71-.47-1-.68-1.2-.84-1.96-1.95-2.32-3.28-.46-1.67.28-2.91,1.64-3.89,1.21-.87,2.57-1.48,4.05-1.9C15.24.21,18.07-.06,20.93.01c2.2.05,4.41.25,6.6.53,2.79.35,5.48,1.14,8.11,2.12,2.27.85,4.43,1.9,6.45,3.18,2.04,1.29,3.84,2.82,5.25,4.69,1.65,2.18,2.03,4.47.89,6.92-1.14,2.45-2.98,4.35-5.17,6.01-.73.55-1.48,1.06-2.17,1.55,1.25,1.09,2.54,2.13,3.73,3.26,2.25,2.14,4.06,4.53,4.94,7.42.72,2.37.96,4.77.34,7.14-.31,1.17-.81,2.32-1.4,3.39-1.51,2.74-3.74,4.97-6.11,7.09-2.8,2.5-5.8,4.79-8.93,6.93-4.23,2.9-8.54,5.7-13.13,8.14-3.03,1.61-6.06,3.23-9.1,4.84-.24.13-.49.23-.74.35-.04-.05-.08-.09-.11-.14.47-.34.92-.71,1.41-1.03,4.27-2.78,8.16-5.97,12.04-9.18,3.05-2.52,5.98-5.15,8.73-7.95,1.42-1.45,2.79-2.94,4.14-4.43.96-1.05,1.78-2.2,2.39-3.46.84-1.75,1.47-3.58,1.46-5.51-.02-2.46-.72-4.82-1.97-7.05-1.47-2.61-3.49-4.83-5.84-6.81-.28-.24-.57-.48-.85-.72-.06-.05-.1-.13-.22-.3Z"/><path class="cls-1" d="m33.62,10.38c1.76.64,3.38,1.52,4.78,2.75.4.36.76.79,1.06,1.23.63.94.71,1.93.28,2.96-.58,1.39-1.49,2.56-2.66,3.53-2.68,2.21-5.62,3.98-9.06,4.92-.27.07-.53.17-.94.31.34.27.58.47.82.65,2.85,2.06,5.14,4.59,6.94,7.54,1.44,2.36,2.07,4.94,1.97,7.64-.05,1.38-.29,2.75-.84,4.03-.46,1.06-.97,2.11-1.6,3.09-.62.96-1.37,1.85-2.13,2.72-3.92,4.49-8.23,8.62-12.76,12.52-2.08,1.79-4.23,3.53-6.35,5.28-1.79,1.47-3.86,2.53-5.9,3.64-1.03.56-2.08,1.08-3.21,1.54.07-.11.12-.27.23-.34,6.11-4.18,11.73-8.9,17.09-13.92,3.39-3.18,6.61-6.5,9.54-10.08,1.29-1.57,2.22-3.33,2.85-5.2.84-2.48.88-5.03.17-7.59-.84-3.01-2.43-5.64-4.57-7.98-.93-1.01-1.96-1.93-2.95-2.9-.22-.21-.44-.43-.76-.73.54-.21.97-.36,1.38-.53,2.69-1.07,5.18-2.46,7.35-4.34,1.13-.98,2.01-2.12,2.69-3.43.79-1.52.65-2.98-.35-4.35-.85-1.16-1.97-2.07-3.28-2.75.07-.07.13-.14.2-.21Z"/><path class="cls-1" d="m8.54,46.1c-.09-.25-.21-.5-.27-.76-.97-4.45-1.48-8.96-1.53-13.52-.01-1.21-.13-2.44,0-3.63.41-3.58.5-7.22,1.68-10.67.23-.66.54-1.29.82-1.92.06-.13.14-.26.22-.37.96-1.37,1.73-1.72,3.23-1.06-.36.59-.77,1.16-1.06,1.78-.43.92-.89,1.85-1.11,2.83-.42,1.84-.78,3.71-.99,5.59-.39,3.56-.61,7.14-.3,10.72.2,2.38.52,4.74.85,7.11.11.77.14,1.47-.32,2.15-.38.57-.68,1.19-1.02,1.79-.07,0-.14-.01-.21-.02Z"/></g></svg>