<?xml version="1.0" encoding="UTF-8"?><svg id="Layer_2" xmlns="http://www.w3.org/2000/svg" viewBox="0 0 102.47 44.75"><defs><style>.cls-1{fill:#fff;stroke-width:0px;}</style></defs><g id="Layer_1-2"><path class="cls-1" d="m95.62,31.33c-.59.58-1.15,1.17-1.76,1.72-1.71,1.54-3.58,2.89-5.55,4.08-1.95,1.18-3.95,2.26-6.04,3.16-.58.25-1.17.46-1.75.71-.81.35-1.66.58-2.48.87-.53.18-1.05.36-1.61.45-.14.02-.28.05-.42.07-.16.03-.33.06-.42.22-2.42.47-4.83.93-7.25,1.4l-.96.06c-1.09.21-2.2.28-3.31.35-.56.03-1.11.12-1.67.16-.53.04-1.06.04-1.6.06-.37.01-.74.01-1.11.05-1.02.09-2.04.04-3.05.03-1.16-.01-2.33-.05-3.49-.12-2.71-.16-5.41-.47-8.07-1.06-.99-.22-1.96-.51-2.94-.78-.14-.04-.3-.08-.37-.23,1.62-.86,3.16-1.79,4.61-2.88,1.31-.98,2.58-2,3.74-3.16,1.07-1.07,2.02-2.23,2.83-3.5.88-1.38,1.59-2.85,1.95-4.47.31-1.38.36-2.77.13-4.18-.27-1.6-.94-3-1.85-4.32-.73-1.04-1.64-1.91-2.62-2.72-1.23-1.02-2.62-1.78-4.05-2.47-2.12-1.02-4.36-1.68-6.65-2.16-2.13-.45-4.28-.73-6.45-.82-1.39-.06-2.79-.04-4.18-.04-.5,0-1,0-1.5.04-.65.05-1.3.12-1.96.18-.15.01-.3.02-.45.03-.18.01-.36.02-.53.04-.57.06-1.14.13-1.7.19-.05,0-.09.01-.14.02-1.66.32-3.34.61-4.99.98-.72.16-1.45.33-2.14.58-.6.21-1.24.31-1.82.58-.55.25-1.16.36-1.73.56-1.86.67-3.68,1.43-5.44,2.32-1.16.59-2.3,1.21-3.4,1.9-1.12.7-2.18,1.5-3.27,2.25-.04.03-.1.05-.17.08-.02-.19.1-.26.18-.36.91-1.05,1.93-1.99,2.99-2.88,2-1.68,4.17-3.1,6.43-4.39,1.71-.97,3.48-1.83,5.29-2.6.97-.41,1.95-.8,2.94-1.16.94-.34,1.9-.62,2.84-.94,1.62-.54,3.26-.98,4.93-1.33,1.83-.39,3.67-.77,5.52-1.08,1.52-.25,3.05-.41,4.58-.58.95-.11,1.9-.18,2.84-.25.59-.04,1.18-.03,1.77-.06.39-.02.78-.08,1.17-.09,1.07-.02,2.14-.04,3.21-.02,1.32.03,2.64.08,3.96.16,1.81.1,3.61.32,5.4.58,1.77.25,3.53.6,5.27,1.01,2.76.65,5.45,1.5,8.05,2.64.21.09.24.23.25.42.02.42.01.83.05,1.25.05.59.09,1.19.2,1.77.2,1.05.4,2.11.69,3.14.25.87.59,1.71.96,2.53.98,2.18,2.31,4.13,3.94,5.87,1.57,1.68,3.37,3.05,5.37,4.19,1.44.82,2.96,1.44,4.54,1.9,1.29.37,2.6.63,3.93.74.77.06,1.54.07,2.31.08,1.53.02,3.04-.19,4.53-.51.48-.1.94-.27,1.41-.41.02.04.05.09.07.13Z"/><path class="cls-1" d="m102.19,11.83c.08.54.2,1.08.23,1.62.05.87.06,1.75-.02,2.62-.15,1.53-.52,3-1.17,4.4-1.27,2.74-3.12,4.98-5.76,6.51-.7.41-1.42.78-2.16,1.1-.5.22-1.04.33-1.57.49-.22.07-.43.13-.65.18-.31.07-.63.12-.95.17-.11.02-.22,0-.32.02-1.93.34-3.82.2-5.7-.32-1.27-.35-2.5-.8-3.63-1.49-1.56-.96-2.94-2.13-4.1-3.58-.92-1.16-1.62-2.44-2.14-3.81-.56-1.45-.84-2.96-.93-4.52-.13-2.37.32-4.63,1.32-6.76,1.43-3.06,3.67-5.37,6.69-6.91.5-.25,1.03-.44,1.55-.64.77-.31,1.57-.47,2.37-.64,1.58-.34,3.17-.34,4.77-.11,1.81.25,3.5.86,5.09,1.74,2.59,1.44,4.51,3.53,5.82,6.17.23.45.38.94.58,1.4.34.76.47,1.57.66,2.36Z"/></g></svg>