<?xml version="1.0" encoding="UTF-8"?><svg id="Layer_2" xmlns="http://www.w3.org/2000/svg" xmlns:xlink="http://www.w3.org/1999/xlink" viewBox="0 0 102.47 49.41"><defs><style>.cls-1{fill:#231f20;}.cls-1,.cls-2{stroke-width:0px;}.cls-2{fill:#fff;}</style><symbol id="New_Symbol" viewBox="0 0 136.54 15.92"><path class="cls-1" d="m26.76,12.04s.03.03.05.04c-.03,0-.06,0-.09,0,0,0,0-.04,0-.04h.04Z"/><path class="cls-1" d="m26.76,12.04s.03.03.05.04c-.03,0-.06,0-.09,0,0,0,0-.04,0-.04h.04Z"/><path class="cls-2" d="m12.98,0c-.05.1-.1.21-.15.31.08,1.52.2,3.03.23,4.55.07,3.02-.02,6.03-.17,9.04-.03.52-.07,1.04-.1,1.61h2c-.3-5.17-.29-10.3,0-15.51h-1.82Z"/><path class="cls-2" d="m26.73,15.58s.06,0,.09,0c-.02-.01-.03-.03-.05-.04-.02-.4-.06-.81-.06-1.21,0-2.64,0-5.27.01-7.91,0-.19-.02-.39-.04-.62h-1.48l-.16.12c0,1.65.01,3.3-.04,4.95-.02.7-.13,1.42-.31,2.09-.23.86-.79,1.48-1.7,1.67-1.62.35-2.83-.53-3-2.17-.03-.3-.02-.61-.02-.91,0-1.9,0-3.8,0-5.73h-1.63c-.02.12-.06.22-.06.32,0,2.26-.02,4.52.01,6.78,0,.39.15.79.31,1.16.84,2.08,4.47,2.47,5.89.62.13-.17.27-.32.41-.48l.14.06v1.3c.61,0,1.15,0,1.68,0Z"/><path class="cls-2" d="m62.08,15.38c-.11-.65-.25-1.29-.33-1.94-.16-1.28-.29-2.56-.42-3.84-.19-1.81-.35-3.63-.56-5.44-.11-1-.28-1.99-.44-2.98,0-.03-.07-.06-.19-.15-.65.84-1.05,1.83-1.55,2.74-.53.96-1.05,1.92-1.57,2.88-.51.94-1.01,1.88-1.51,2.82-.51.95-1.03,1.9-1.62,2.99-.32-.63-.56-1.13-.81-1.61-1.59-3.07-3.18-6.14-4.78-9.2-.08-.16-.15-.33-.27-.46-.1-.11-.27-.16-.5-.28-.07.53-.13.96-.18,1.38-.16,1.33-.3,2.66-.47,3.99-.12.95-.29,1.9-.43,2.86-.3,1.95-.6,3.91-.89,5.86-.02.17-.02.33-.03.51h1.44c.34-3.4.68-6.73,1.02-10.07.05-.01.1-.03.16-.04.58,1.14,1.16,2.28,1.74,3.42.59,1.15,1.17,2.31,1.77,3.46.59,1.13,1.09,2.3,1.83,3.56.5-1.03.92-1.88,1.35-2.74.44-.89.88-1.78,1.34-2.66.45-.86.9-1.71,1.38-2.55.48-.84.81-1.76,1.36-2.56.06.01.12.03.17.04.32,3.39.65,6.77.98,10.23h1.97s.07,0,.11,0l-.09-.22Z"/><path class="cls-2" d="m122.15,9.08c0,.31,0,.61,0,.9.04,1.24.09,2.48.11,3.73.01.64-.03.67-.61.88-1.33.48-2.73.51-4.08.3-2.42-.38-3.96-1.9-4.58-4.25-.38-1.44-.32-2.91.04-4.37.32-1.28.93-2.35,1.99-3.16,1.14-.88,2.49-1.21,3.86-1.17,1.53.04,2.95.53,4.06,1.68.16.17.37.3.7.55.05-.79.46-1.34.27-2.01-2.55-1.18-5.19-1.46-7.9-.77-2.27.58-3.97,1.9-4.87,4.13-.47,1.16-.53,2.36-.51,3.59.02,1.52.48,2.89,1.39,4.1,1.03,1.37,2.41,2.28,4.11,2.49,1.28.16,2.59.13,3.88.13,1.21,0,2.37-.31,3.51-.65.49-.15.53-.28.53-.77-.01-1.37,0-2.74.01-4.11,0-.4,0-.79,0-1.22h-1.93Z"/><path class="cls-2" d="m87.21,15.52c-.04-.42-.1-.79-.1-1.16-.01-1.57,0-3.15,0-4.72,0-.71.21-1.36.6-1.93.58-.85,1.45-1.09,2.41-.96.82.11,1.39.62,1.62,1.42.14.48.25.99.25,1.48.03,1.95.01,3.89.01,5.87h1.67c.02-.14.04-.24.04-.34,0-1.29,0-2.59,0-3.88,0-.94.03-1.88-.02-2.82-.08-1.38-.88-2.39-2.13-2.78-1.56-.48-2.91-.1-4.04,1.07-.11.11-.23.21-.46.41v-1.34h-1.72v9.69h1.87Z"/><path class="cls-2" d="m101.41,7.74c.44-.43.38-.98.54-1.44.03-.07-.19-.28-.33-.35-.98-.45-1.99-.62-3.04-.31-1.03.31-1.86.89-2.16,1.97-.44,1.56-.08,2.75,1.34,3.38.49.22.99.39,1.49.59.35.14.73.25,1.05.44,1.06.63,1.05,2.04,0,2.68-.71.44-1.45.47-2.17.06-.35-.2-.64-.49-.96-.75-.18-.14-.35-.29-.62-.51-.17.69-.31,1.23-.44,1.75,1.39.67,2.81.81,4.08.44.7-.21,1.31-.57,1.77-1.14,1.08-1.32,1.15-3.37-.97-4.26-.49-.21-1.01-.34-1.51-.53-.38-.15-.77-.29-1.09-.52-.75-.52-.84-1.51-.24-2.2.75-.86,1.85-.87,2.66,0,.2.22.38.45.6.71Z"/><path class="cls-2" d="m62.06,15.59h-1.97c-.33-3.45-.66-6.84-.98-10.23-.06-.01-.12-.03-.17-.04-.55.8-.88,1.73-1.36,2.56-.48.84-.94,1.69-1.38,2.55-.46.88-.89,1.77-1.34,2.66-.42.85-.84,1.71-1.35,2.74-.74-1.25-1.24-2.43-1.83-3.56-.6-1.15-1.18-2.31-1.77-3.46-.58-1.14-1.16-2.28-1.74-3.42-.05.01-.1.03-.16.04-.34,3.33-.67,6.67-1.02,10.07h-1.44c0-.17,0-.34.03-.51.29-1.95.59-3.91.89-5.86.14-.95.31-1.9.43-2.86.17-1.33.31-2.66.47-3.99.05-.42.11-.85.18-1.38.23.12.4.17.5.28.12.12.19.3.27.46,1.59,3.07,3.19,6.14,4.78,9.2.25.49.49.98.81,1.61.59-1.08,1.11-2.03,1.62-2.99.51-.94,1-1.88,1.51-2.82.52-.96,1.04-1.92,1.57-2.88.51-.92.9-1.9,1.55-2.74.12.09.18.12.19.15.15.99.32,1.98.44,2.98.2,1.81.37,3.63.56,5.44.13,1.28.26,2.56.42,3.84.08.65.22,1.29.33,1.94,0,.07-.02.14-.02.21Z"/><path class="cls-2" d="m122.15,9.08h1.93c0,.43,0,.82,0,1.22,0,1.37-.02,2.74-.01,4.11,0,.49-.04.62-.53.77-1.15.34-2.31.66-3.51.65-1.3,0-2.6.03-3.88-.13-1.71-.21-3.08-1.12-4.11-2.49-.91-1.21-1.37-2.58-1.39-4.1-.02-1.23.04-2.44.51-3.59.9-2.23,2.6-3.54,4.87-4.13,2.71-.69,5.35-.41,7.9.77.19.68-.22,1.22-.27,2.01-.33-.26-.54-.38-.7-.55-1.11-1.15-2.54-1.64-4.06-1.68-1.38-.04-2.72.3-3.86,1.17-1.05.81-1.67,1.89-1.99,3.16-.36,1.46-.42,2.93-.04,4.37.62,2.35,2.16,3.87,4.58,4.25,1.34.21,2.75.19,4.08-.3.58-.21.62-.24.61-.88-.03-1.24-.08-2.48-.11-3.73,0-.3,0-.6,0-.9Z"/><path class="cls-2" d="m87.21,15.52h-1.87V5.83h1.72v1.34c.23-.2.35-.3.46-.41,1.13-1.17,2.48-1.55,4.04-1.07,1.25.38,2.05,1.4,2.13,2.78.05.94.02,1.88.02,2.82,0,1.29,0,2.59,0,3.88,0,.1-.02.19-.04.34h-1.67c0-1.98.02-3.93-.01-5.87,0-.5-.12-1-.25-1.48-.23-.81-.8-1.31-1.62-1.42-.96-.13-1.84.11-2.41.96-.39.58-.6,1.22-.6,1.93.01,1.57,0,3.15,0,4.72,0,.37.06.75.1,1.16Z"/><path class="cls-2" d="m25.19,5.8h1.48c.02.23.04.42.04.62,0,2.64-.01,5.27-.01,7.91,0,.4.04.81.06,1.21h-.04s0,.04,0,.04h-1.68v-1.3l-.14-.06c-.14.16-.29.31-.41.48-1.42,1.86-5.05,1.46-5.89-.62-.15-.37-.3-.77-.31-1.16-.03-2.26-.01-4.52-.01-6.78,0-.1.03-.19.06-.32h1.63c0,1.93,0,3.83,0,5.73,0,.3-.01.61.02.91.16,1.64,1.38,2.52,3,2.17.91-.2,1.47-.82,1.7-1.67.18-.68.29-1.39.31-2.09.05-1.65.03-3.3.04-4.95.05-.04.1-.08.16-.12Z"/><path class="cls-2" d="m101.41,7.74c-.21-.25-.4-.49-.6-.71-.81-.87-1.91-.86-2.66,0-.6.69-.51,1.67.24,2.2.33.23.72.37,1.09.52.5.19,1.02.32,1.51.53,2.12.9,2.05,2.94.97,4.26-.46.57-1.07.93-1.77,1.14-1.27.37-2.69.23-4.08-.44.13-.52.27-1.06.44-1.75.26.22.44.37.62.51.32.25.61.55.96.75.72.41,1.46.37,2.17-.06,1.05-.64,1.06-2.05,0-2.68-.32-.19-.7-.3-1.05-.44-.5-.2-1-.37-1.49-.59-1.42-.64-1.78-1.82-1.34-3.38.3-1.08,1.13-1.66,2.16-1.97,1.05-.32,2.07-.14,3.04.31.14.06.35.28.33.35-.16.46-.1,1.01-.54,1.44Z"/><path class="cls-2" d="m12.98,0h1.82c-.29,5.21-.3,10.34,0,15.51h-2c.04-.56.08-1.09.1-1.61.15-3.01.24-6.03.17-9.04-.04-1.52-.15-3.03-.23-4.55.05-.1.1-.21.15-.31Z"/><path class="cls-2" d="m62.06,15.59c0-.07.02-.14.02-.21.03.07.06.15.09.22-.04,0-.07,0-.11,0Z"/><path class="cls-2" d="m25.19,5.8c-.05.04-.1.08-.16.12l.16-.12Z"/><path class="cls-2" d="m26.76,15.55s.03.03.05.04c-.03,0-.06,0-.09,0,0,0,0-.04,0-.04h.04Z"/><path class="cls-2" d="m1.85,8.71s.02.08.04.11c0-.05,0-.1.01-.16-.02.01-.05.03-.05.04Z"/><path class="cls-2" d="m1.9,8.67c0,.05,0,.1-.01.16-.01-.04-.03-.08-.04-.11,0-.01.03-.03.05-.04Z"/><path class="cls-2" d="m31.95,10.64c1.83,0,3.66.02,5.5.02.22,0,.44-.02.69-.04,0-.59.05-1.12-.01-1.64-.1-.85-.43-1.62-1.04-2.24-1.9-1.91-5.76-1.63-7.15.73-.94,1.6-1.09,3.3-.66,5.07.38,1.58,2.08,3.07,3.93,3.29,1.31.15,2.58.01,3.75-.7.77-.47.88-.61.72-1.58-.53.34-1.03.75-1.6.98-.55.23-1.17.34-1.77.39-.65.05-1.26-.21-1.78-.59-1.23-.87-1.67-2.08-1.51-3.62.33-.03.63-.08.93-.08Zm2.48-4.27c.48.08.85.32,1.15.68.56.66.82,1.67.69,2.67h-5.07c-.3-1.91,1.39-3.65,3.22-3.34Z"/><path class="cls-2" d="m69.11,10.65c1.17-.02,2.33,0,3.59,0,0-.59.04-1.1,0-1.6-.09-.88-.42-1.68-1.06-2.31-1.89-1.9-5.76-1.62-7.16.75-.78,1.33-.98,2.75-.81,4.26.2,1.76,1.17,2.96,2.73,3.67,1.85.85,3.67.61,5.39-.44.55-.33.63-.69.37-1.42-1.51,1.24-3.12,1.97-5.01.83-1.03-.62-1.9-2.11-1.5-3.69,1.13-.12,2.3-.03,3.46-.05Zm-1.97-3.94c.99-.74,2.54-.41,3.2.63.43.69.59,1.4.5,2.37h-5.18c.07-1.25.5-2.27,1.47-3Z"/><path class="cls-2" d="m81.81,13.81c-.03-.76-.03-1.52-.01-2.28.02-.96.12-1.93.09-2.89-.04-1.33-.66-2.33-1.93-2.84-1.44-.59-2.8-.28-4.1.43-.9.49-.92.56-.74,1.86.28-.28.45-.44.62-.61.41-.44.9-.72,1.49-.86,1.61-.39,2.79.46,2.88,2.1.05.92-.02,1.07-.89,1.31-.76.2-1.54.33-2.31.47-1.62.31-2.45,1.09-2.69,2.55-.16,1,.38,2.07,1.33,2.5,1.32.6,2.58.4,3.77-.37.27-.18.53-.38.8-.59.33.54.67.97,1.36.98,1.17.02,1.25.02,1.49-.42-.79-.18-1.11-.52-1.15-1.34Zm-1.72-.65c0,.1-.01.2-.04.3-.27.91-1.94,1.75-2.83,1.41-.72-.28-1.17-.79-1.23-1.59-.05-.8.2-1.44.95-1.83.96-.5,2.03-.61,3.15-.84,0,.94,0,1.75,0,2.55Z"/><path class="cls-2" d="m135.56,7.46c-.12-.19-.28-.36-.44-.52-1.83-1.77-4.78-1.88-6.77-.52-2.68,1.82-2.4,5.84-1.11,7.53,1.03,1.35,2.42,1.97,4.12,1.9.2,0,.41,0,.61,0,1.9-.1,3.27-.99,4.06-2.73.13-.29.15-.63.25-.94.56-1.7.17-3.25-.72-4.72Zm-1.61,6.16c-.62,1.15-1.59,1.55-2.86,1.48-1.17-.07-1.93-.71-2.34-1.69-.79-1.87-.73-3.78.14-5.61.52-1.1,1.51-1.53,2.71-1.46,1.15.06,1.97.61,2.43,1.67.38.87.58,1.79.49,2.71.06,1.04-.09,2-.58,2.9Z"/><path class="cls-2" d="m9.15,10.39c-.25-.87-.77-1.49-1.58-1.85-.54-.24-1.13-.39-1.75-.6.48-.25.95-.48,1.41-.73,1.22-.68,1.73-2.19,1.52-3.41-.21-1.18-1.14-2.01-2.55-2.29-2.05-.41-4.11.04-6.2-.22v14.28c.54,0,1.07.03,1.6,0,1.11-.08,2.21.17,3.34.03.91-.11,1.75-.31,2.52-.78,1.57-.96,2.2-2.65,1.69-4.42ZM2.61,2.18c.4-.06.83-.11,1.21-.03.69.14,1.44.24,2.01.61,1.44.92,1.35,3.26-.15,4.18-.54.34-1.21.53-1.85.65-.59.11-1.21.02-1.88.02,0-1.64,0-3.18,0-4.72,0-.45.27-.65.65-.71Zm4.58,10.04c-.45,1.71-1.53,2.56-3.31,2.57-.6,0-1.21-.03-1.9-.05-.03-2.03-.07-3.98-.1-5.92,0-.05,0-.1.01-.16.45-.04.9-.15,1.34-.11.75.07,1.52.16,2.24.38,1.41.43,2.09,1.82,1.7,3.29Z"/></symbol></defs><g id="Layer_1-2"><path class="cls-2" d="m95.62,35.99c-.59.58-1.15,1.17-1.76,1.72-1.71,1.54-3.58,2.89-5.55,4.08-1.95,1.18-3.95,2.26-6.04,3.16-.58.25-1.17.46-1.75.71-.81.35-1.66.58-2.48.87-.53.18-1.05.36-1.61.45-.14.02-.28.05-.42.07-.16.03-.33.06-.42.22-2.42.47-4.83.93-7.25,1.4l-.96.06c-1.09.21-2.2.28-3.31.35-.56.03-1.11.12-1.67.16-.53.04-1.06.04-1.6.06-.37.01-.74.01-1.11.05-1.02.09-2.04.04-3.05.03-1.16-.01-2.33-.05-3.49-.12-2.71-.16-5.41-.47-8.07-1.06-.99-.22-1.96-.51-2.94-.78-.14-.04-.3-.08-.37-.23,1.62-.86,3.16-1.79,4.61-2.88,1.31-.98,2.58-2,3.74-3.16,1.07-1.07,2.02-2.23,2.83-3.5.88-1.38,1.59-2.85,1.95-4.47.31-1.38.36-2.77.13-4.18-.27-1.6-.94-3-1.85-4.32-.73-1.04-1.64-1.91-2.62-2.72-1.23-1.02-2.62-1.78-4.05-2.47-2.12-1.02-4.36-1.68-6.65-2.16-2.13-.45-4.28-.73-6.45-.82-1.39-.06-2.79-.04-4.18-.04-.5,0-1,0-1.5.04-.65.05-1.3.12-1.96.18-.15.01-.3.02-.45.03-.18.01-.36.02-.53.04-.57.06-1.14.13-1.7.19-.05,0-.09.01-.14.02-1.66.32-3.34.61-4.99.98-.72.16-1.45.33-2.14.58-.6.21-1.24.31-1.82.58-.55.25-1.16.36-1.73.56-1.86.67-3.68,1.43-5.44,2.32-1.16.59-2.3,1.21-3.4,1.9-1.12.7-2.18,1.5-3.27,2.25-.04.03-.1.05-.17.08-.02-.19.1-.26.18-.36.91-1.05,1.93-1.99,2.99-2.88,2-1.68,4.17-3.1,6.43-4.39,1.71-.97,3.48-1.83,5.29-2.6.97-.41,1.95-.8,2.94-1.16.94-.34,1.9-.62,2.84-.94,1.62-.54,3.26-.98,4.93-1.33,1.83-.39,3.67-.77,5.52-1.08,1.52-.25,3.05-.41,4.58-.58.95-.11,1.9-.18,2.84-.25.59-.04,1.18-.03,1.77-.06.39-.02.78-.08,1.17-.09,1.07-.02,2.14-.04,3.21-.02,1.32.03,2.64.08,3.96.16,1.81.1,3.61.32,5.4.58,1.77.25,3.53.6,5.27,1.01,2.76.65,5.45,1.5,8.05,2.64.21.09.24.23.25.42.02.42.01.83.05,1.25.05.59.09,1.19.2,1.77.2,1.05.4,2.11.69,3.14.25.87.59,1.71.96,2.53.98,2.18,2.31,4.13,3.94,5.87,1.57,1.68,3.37,3.05,5.37,4.19,1.44.82,2.96,1.44,4.54,1.9,1.29.37,2.6.63,3.93.74.77.06,1.54.07,2.31.08,1.53.02,3.04-.19,4.53-.51.48-.1.94-.27,1.41-.41.02.04.05.09.07.13Z"/><path class="cls-2" d="m102.19,16.49c.08.54.2,1.08.23,1.62.05.87.06,1.75-.02,2.62-.15,1.53-.52,3-1.17,4.4-1.27,2.74-3.12,4.98-5.76,6.51-.7.41-1.42.78-2.16,1.1-.5.22-1.04.33-1.57.49-.22.07-.43.13-.65.18-.31.07-.63.12-.95.17-.11.02-.22,0-.32.02-1.93.34-3.82.2-5.7-.32-1.27-.35-2.5-.8-3.63-1.49-1.56-.96-2.94-2.13-4.1-3.58-.92-1.16-1.62-2.44-2.14-3.81-.56-1.45-.84-2.96-.93-4.52-.13-2.37.32-4.63,1.32-6.76,1.43-3.06,3.67-5.37,6.69-6.91.5-.25,1.03-.44,1.55-.64.77-.31,1.57-.47,2.37-.64,1.58-.34,3.17-.34,4.77-.11,1.81.25,3.5.86,5.09,1.74,2.59,1.44,4.51,3.53,5.82,6.17.23.45.38.94.58,1.4.34.76.47,1.57.66,2.36Z"/><use width="136.54" height="15.92" transform="translate(7.33) scale(.51 .53)" xlink:href="#New_Symbol"/></g></svg>