<?xml version="1.0" encoding="UTF-8"?><svg xmlns="http://www.w3.org/2000/svg" viewBox="0 0 425.2 425.52"><defs><style>.b{fill:#fff;}.c{isolation:isolate;}.d{fill:#951b81;}.e{fill:#68328a;}.f{fill:#dadada;}.g{fill:#878787;opacity:.71;}.h{fill:#d0d7e6;mix-blend-mode:multiply;}.i{fill:#1d1d1b;}</style></defs><g class="c"><g id="a"><rect class="e" width="425.2" height="425.52"/><path class="h" d="M98.6,325.91l102.7,99.6h223.89V240.36l-84.5-85.42-225.6,14.48s-50.91,65.86-16.49,156.5Z"/><path class="i" d="M326.2,277.93c-14.76,0-26.73,11.95-26.73,26.7s11.97,26.71,26.73,26.71,26.73-11.96,26.73-26.71-11.97-26.7-26.73-26.7Zm5.39,32.57c-1.42,1.31-3.31,2.11-5.39,2.11s-3.98-.8-5.4-2.11c-1.59-1.46-2.59-3.54-2.59-5.86,0-.5,.05-.98,.14-1.45,.68-3.7,3.93-6.52,7.84-6.52s7.16,2.81,7.84,6.52c.09,.47,.14,.95,.14,1.45,0,2.32-1,4.41-2.59,5.86Z"/><path class="i" d="M115.16,277.93h-.13c-13.18,.03-24.12,9.6-26.27,22.16-.26,1.48-.4,2.99-.4,4.55,0,14.75,11.97,26.71,26.73,26.71s26.73-11.96,26.73-26.71c0-1.55-.14-3.07-.39-4.55-2.16-12.56-13.09-22.12-26.27-22.16Zm5.33,32.56c-1.42,1.31-3.31,2.11-5.39,2.11s-3.98-.8-5.4-2.11c-1.59-1.46-2.58-3.54-2.58-5.86,0-.5,.05-.98,.13-1.45,.21-1.13,.67-2.19,1.3-3.1,1.44-2.07,3.83-3.43,6.55-3.43s5.11,1.35,6.55,3.43c.63,.91,1.09,1.96,1.29,3.1,.09,.47,.14,.95,.14,1.45,0,2.32-1,4.41-2.59,5.86Z"/><path class="d" d="M105.5,277.93h-22.54v22.16h4.12c.02-.09,.03-.19,.04-.28,1.78-10.33,8.97-18.52,18.38-21.88Z"/><path class="d" d="M381.56,286.22c-.11-12.19,.23-24.27-.22-36.46-3.89-1.78-7.82-3.57-11.75-5.39-2.73-1.27-5.47-2.56-8.18-3.89-.36-.14-.7-.31-1.02-.48-5.55-2.97-5.37-10.45-7.49-15.74-2.19-8.97-5.81-17.68-8-26.63-1.39-5.67-2.21-11.44-1.73-17.43-15.95-.22-31.8-.11-47.65,0h-.15v.03l-.08-.07v19.62l.08,.07c-.05,26.02-.27,52.06,0,78.08H124.7c9.41,3.36,16.61,11.55,18.38,21.88,.01,.09,.03,.19,.04,.28h152.59c3.92-12.41,13.66-24.38,27.65-25.16,15.44-2.24,29.77,9.62,33.13,24.38,10.19,.11,20.37,.11,30.56,.11,0-4.25,.11-8.61,.11-12.86-1.9-.11-3.69-.22-5.6-.33Zm-65.15-47.86c-.11-11.86-.34-23.71,.11-35.56,7.95,0,16.01-.12,23.95,.22,3.13,11.74,6.94,23.37,10.08,35.23-11.42,.22-22.72,.11-34.14,.11Zm63.86,48.76c-6.92,.24-13.95,.24-20.87,.12-.12-4.17-.12-8.22,0-12.39,6.92-.12,13.84-.12,20.75,0,.24,4.17,.24,8.22,.12,12.27Z"/><path class="f" d="M290.72,174.61h49.97v-19.94H82.49v118.88h208.23v-98.93Zm-104.92,76.1c-22.73,0-41.27-18.5-41.27-41.23s18.53-41.24,41.27-41.24,41.29,18.5,41.29,41.24-18.53,41.23-41.29,41.23Z"/><path class="g" d="M218.28,235.05c-14.14,12.9-34.05,21-50.67,11.07-6.91-4.13-12.35-8.35-15.98-13.43-.07,.48-7.17-15.37-7.09-20.89,.02-.67,.75-8.58,.83-9.26,.06-.56,1-5.33,1.19-5.79-30.66-18.25-55.64-34.21-64.7-42.1v118.88h208.23c-11.54-3.84-40.06-21.07-71.81-38.47Z"/><path class="b" d="M185.81,174.59c-19.26,0-34.91,15.66-34.91,34.89s15.65,34.89,34.91,34.89,34.93-15.65,34.93-34.89-15.67-34.89-34.93-34.89Zm21.32,21.25l-19.06,19.04h0c-.63,.62-1.44,.94-2.26,.94s-1.62-.32-2.25-.93l-19.03-19.05c-1.24-1.24-1.24-3.23,0-4.49,1.23-1.23,3.24-1.23,4.49,0l16.8,16.81,16.82-16.81c1.23-1.23,3.24-1.23,4.48,0,1.24,1.25,1.24,3.25,0,4.49Z"/></g></g></svg>