<?xml version="1.0" encoding="UTF-8"?><svg xmlns="http://www.w3.org/2000/svg" viewBox="0 0 305.34 78.66"><defs><style>.d{fill:#ba59dc;}.e{fill:#9700ca;}.f{fill:#c16adf;}.g{fill:#aa31d4;}.h{fill:#666;}</style></defs><g id="a"/><g id="b"><g id="c"><polygon class="g" points="32.14 5.47 31.72 43.4 23.8 38.49 20.15 36.22 11.92 31.1 12.05 18.93 20.39 14.18 20.26 25.85 23.92 28.14 24.22 1.2 32.14 5.47"/><polygon class="g" points="67.81 10.56 34.84 29.33 35.09 20.01 35.2 15.71 35.47 6.02 46.05 0 54.36 4.81 44.21 10.58 44.08 14.89 67.5 1.57 67.81 10.56"/><polygon class="f" points="80.49 44.55 47.84 25.25 56.05 20.84 59.84 18.8 68.39 14.23 78.86 20.42 78.82 30.02 68.77 24.08 64.96 26.11 88.15 39.82 80.49 44.55"/><polygon class="d" points="56.4 71.97 55.86 34.04 63.9 38.75 67.62 40.92 75.97 45.83 76.15 58 67.93 62.96 67.76 51.29 64.05 49.1 64.43 76.03 56.4 71.97"/><polygon class="e" points="20.93 67.04 53.18 47.08 53.28 56.4 53.32 60.7 53.41 70.39 43.06 76.8 34.58 72.3 44.5 66.16 44.48 61.84 21.57 76.02 20.93 67.04"/><polygon class="e" points="7.55 32.55 40.63 51.1 32.52 55.7 28.78 57.82 20.34 62.59 9.72 56.63 9.55 47.04 19.74 52.75 23.5 50.64 0 37.46 7.55 32.55"/><path class="e" d="M123.3,36.23h10.99c-1.15,4.83-3.64,8.74-7.49,11.73-3.85,2.99-8.29,4.48-13.32,4.48-6.06,0-11.18-2.09-15.38-6.26-4.2-4.17-6.29-9.25-6.29-15.23s2.08-11.01,6.23-15.1c4.15-4.09,9.26-6.14,15.32-6.14,6.92,0,12.48,2.56,16.7,7.67,2.33,2.87,3.74,5.77,4.24,8.72h-10.99c-.82-2.21-2.13-3.96-3.93-5.25s-3.83-1.93-6.08-1.93c-3.11,0-5.72,1.15-7.83,3.44-2.11,2.29-3.16,5.14-3.16,8.53s1.06,6.4,3.19,8.75c2.13,2.35,4.75,3.53,7.86,3.53,4.34,0,7.65-2.31,9.95-6.94"/><polygon class="e" points="136.38 51.64 136.38 10.5 146.88 10.5 146.88 25.91 160.32 25.91 160.32 10.5 170.82 10.5 170.82 51.64 160.32 51.64 160.32 35.19 146.88 35.19 146.88 51.64 136.38 51.64"/><path class="e" d="M195.69,9.64c6.1,0,11.26,2.07,15.47,6.2,4.21,4.13,6.32,9.21,6.32,15.23s-2.1,11.03-6.29,15.17c-4.2,4.14-9.34,6.2-15.44,6.2s-11.4-2.07-15.53-6.2c-4.13-4.13-6.2-9.29-6.2-15.47s2.1-10.89,6.29-14.98c4.19-4.09,9.32-6.14,15.38-6.14m.06,9.27c-3.15,0-5.81,1.15-7.98,3.44-2.17,2.29-3.25,5.12-3.25,8.47,0,3.52,1.08,6.46,3.25,8.81,2.17,2.35,4.89,3.53,8.17,3.53s5.73-1.17,7.86-3.5c2.13-2.33,3.19-5.18,3.19-8.53s-1.09-6.33-3.25-8.69c-2.17-2.35-4.83-3.53-7.98-3.53"/><polygon class="e" points="224.3 51.64 224.3 19.78 216.13 19.78 216.13 10.5 242.9 10.5 242.9 19.78 234.8 19.78 234.8 51.64 224.3 51.64"/><polygon class="e" points="244.25 51.64 244.25 10.5 267.16 10.5 267.16 19.78 254.32 19.78 254.32 26.1 266.73 26.1 266.73 35.37 254.32 35.37 254.32 42.37 267.16 42.37 267.16 51.64 244.25 51.64"/><polygon class="e" points="270.59 51.64 270.59 10.5 279.62 10.5 295.7 36.35 295.28 10.5 305.34 10.5 305.34 51.64 296.2 51.64 280.29 26.59 280.66 51.64 270.59 51.64"/><polygon class="h" points="95.74 61.81 97.89 61.81 97.89 76.71 105.03 76.71 105.03 78.52 95.74 78.52 95.74 61.81"/><rect class="h" x="107.39" y="61.81" width="2.16" height="16.71"/><path class="h" d="M127.35,71.18c-.12-2.33-.27-5.13-.25-7.21h-.07c-.57,1.96-1.26,4.04-2.11,6.35l-2.95,8.1h-1.64l-2.7-7.96c-.79-2.35-1.46-4.51-1.93-6.49h-.05c-.05,2.08-.17,4.88-.32,7.39l-.45,7.16h-2.06l1.16-16.71h2.75l2.85,8.08c.69,2.06,1.26,3.89,1.69,5.63h.07c.42-1.68,1.02-3.52,1.76-5.63l2.98-8.08h2.75l1.04,16.71h-2.11l-.42-7.34Z"/><rect class="h" x="133.15" y="61.81" width="2.16" height="16.71"/><polygon class="h" points="142.2 63.64 137.12 63.64 137.12 61.81 149.49 61.81 149.49 63.64 144.38 63.64 144.38 78.52 142.2 78.52 142.2 63.64"/><polygon class="h" points="159.95 70.68 153.46 70.68 153.46 76.71 160.7 76.71 160.7 78.52 151.3 78.52 151.3 61.81 160.33 61.81 160.33 63.62 153.46 63.62 153.46 68.9 159.95 68.9 159.95 70.68"/><path class="h" d="M163.45,62.03c1.31-.2,2.88-.35,4.58-.35,3.1,0,5.31,.72,6.77,2.08,1.49,1.36,2.35,3.3,2.35,6s-.84,4.96-2.4,6.49c-1.56,1.56-4.14,2.4-7.39,2.4-1.54,0-2.82-.07-3.92-.2v-16.44Zm2.16,14.77c.55,.1,1.34,.12,2.18,.12,4.61,0,7.11-2.58,7.11-7.09,.02-3.94-2.21-6.45-6.77-6.45-1.12,0-1.96,.1-2.53,.22v13.19Z"/></g></g></svg>