<?xml version="1.0" encoding="UTF-8"?><svg xmlns="http://www.w3.org/2000/svg" xmlns:xlink="http://www.w3.org/1999/xlink" viewBox="0 0 425.2 425.2"><defs><style>.c{isolation:isolate;}.d{fill:#f5d6a5;}.e{fill:#68328a;}.f{fill:#9cbdc0;}.g{fill:#efcd9c;}.h{clip-path:url(#b);}.i,.j,.k,.l,.m{mix-blend-mode:multiply;}.i,.n{fill:#e3d8cc;}.o{fill:none;}.j{fill:#95c1cb;}.k{fill:#d3d7d8;}.p{fill:#3db0c9;}.m{fill:#b4cac9;}</style><clipPath id="b"><rect class="o" width="425.2" height="425.2"/></clipPath></defs><g class="c"><g id="a"><g class="h"><rect class="e" y="-.42" width="425.2" height="425.2"/><g><path class="e" d="M496.14,257.76c0,133.85-110.58,242.36-246.99,242.36S2.15,391.61,2.15,257.76,112.73,15.39,249.14,15.39s246.99,108.51,246.99,242.37Z"/><g><path class="g" d="M294.71,307.8c-4.5,2.64-8.71,8.45-14.55,13.72-4.93,4.46-15.12,10.25-22.27,13.52-.07,.02-.14,.05-.2,.09l-3.23,1.36c-.06,.02-.12,.04-.18,.07l-10.42,4.41c-16.11,6.8-34.8-.49-41.72-16.29l-12.26-27.91c-6.94-15.8,.48-34.15,16.59-40.94l33.16-14.03c16.11-6.8,34.78,.49,41.73,16.29l12.26,27.91c3.16,7.18,3.34,14.88,1.09,21.78Z"/><path class="g" d="M273.68,249.1h-.03l-41.11,14.95c-1.79-1.21-3.38-3.31-5-4.88-1.63-1.6-3.32-2.73-5.04-4.21-.46-.35-.85-.75-1.22-1.16h-.02c-1.45-1.57-2.53-3.26-4.67-3.96-2.09-.8-5.61-1.66-7.64-2.89l1.27,.56c-2.05-.79-5.76-2.91-8.58-5.31-3.11-2.61-5.83-5.13-8.78-8.45-4.98-5.62-8.5-11.77-8.68-14.43-.02-.03,0-.09-.01-.16-.2-1.9,.13-3.59,1.33-4.82,1.27-1.53,2.65-2.42,4.16-2.78,3.85-.97,8.31,1.39,12.69,4.3,5.49,3.72,10.14,6.25,13.47,7.16,7.43,1.75,10.88,2.46,18.38,5.93,5.98,3.2,23.95,10.68,29.9,13.43,1.47,.78,8.23,5.89,9.56,6.72Z"/><rect class="g" x="257.01" y="240.32" width="86.91" height="73.48"/><path class="i" d="M343.9,300.2v13.61h-56.23c3.19-3.65,5.11-8.88,6.35-13.61h49.88Z"/><rect class="p" x="310.69" y="230.82" width="95.22" height="93.47"/><rect class="j" x="310.69" y="277.55" width="95.22" height="46.74"/><path class="i" d="M234.54,265.63c-.95,2.5-1.42,5.09-1.33,7.63-2.67-1.31-5.8-1.62-8.79-.8h-.03v-.03c2.59-3.35,3.28-7.94,1.48-12.03-2.29-5.24-7.86-8.07-13.35-7.15l5.84-2.48,.23-.08c6.53-.03,13.12,6.41,15.38,12.83,.26,.72,.43,1.42,.58,2.11Z"/><g class="l"><path class="n" d="M274.24,325.96c-.35,.23-.7,.46-1.05,.67-.51,.37-.73,.5-1.28,.85-.61,.38-.98,.69-1.67,1.03l-11.84-14.7-1.39-1.71-5.74-6.98c.08-1.79-.21-3.61-.99-5.38-1.71-3.93-5.31-6.49-9.31-7.13l-2.3-2.82c.9-1.66,1.4-3.5,1.45-5.41,5.02,2.79,11,5.58,16.88,6.38,1.83,.26,3.65,.28,5.43,.08-2.44,6.46-.17,15.86,2.29,21.47,.2,.51,.43,1.03,.7,1.51,2.26,4.56,5.66,8.23,8.82,12.15Z"/></g><g><path class="f" d="M101.42,220.95c12.57,11.15,29.82,13.97,44.75,8.87l116.94,146.91c2.75,3.44,6.55,5.61,10.65,6.39,4.92,1.01,10.26-.06,14.57-3.37,3.88-2.96,6.18-7.25,6.78-11.74,.55-4.46-.62-9.16-2.37-11.24l-118.96-149.44c5.92-18.51,2.02-38.57-12.5-51.44-12.25-10.83-28.91-13.78-43.61-9.16l26.46,23.46c3.68,3.21,3.98,8.69,.65,12.28l-18.09,19.73c-3.29,3.51-8.9,3.83-12.52,.63l-26.47-23.46c-3.23,14.79,1.49,30.71,13.71,41.57Z"/><path class="m" d="M270.57,369.62c2.59,3.26,7.39,3.83,10.7,1.29h0c3.32-2.55,3.91-7.26,1.31-10.5l-98.1-123.24c-2.59-3.26-7.39-3.83-10.7-1.29h0c-3.32,2.53-3.91,7.24-1.31,10.5l98.1,123.24Z"/></g><path class="d" d="M257.41,315.37c3.26,5.86,1.06,13.21-4.92,16.42l-37.11,19.86c-5.97,3.2-13.47,1.03-16.72-4.83h0c-3.26-5.87-1.06-13.22,4.92-16.41l37.12-19.87c5.98-3.19,13.46-1.03,16.72,4.84h0Z"/><path class="d" d="M250.28,299.75c2.69,6.14-.19,13.26-6.44,15.89l-47.14,19.94c-6.25,2.64-13.5-.19-16.2-6.33h0c-2.7-6.13,.19-13.25,6.45-15.89l47.14-19.94c6.25-2.64,13.51,.19,16.2,6.33h0Z"/><path class="d" d="M239.12,279.33c2.7,6.14-.19,13.26-6.44,15.89l-51.3,21.7c-6.25,2.64-13.5-.19-16.2-6.33h0c-2.69-6.13,.19-13.24,6.45-15.89l51.3-21.69c6.25-2.64,13.5,.18,16.2,6.32h0Z"/><path class="d" d="M225.88,260.41c2.69,6.13-.19,13.25-6.45,15.89l-47.14,19.93c-6.25,2.65-13.51-.18-16.2-6.31h0c-2.69-6.15,.19-13.26,6.45-15.9l47.14-19.93c6.25-2.65,13.51,.18,16.2,6.33h0Z"/></g><path class="k" d="M489.69,313c-18.66,78.42-76.12,142.22-151.43,170.78l-134.79-132.22c3.55,1.94,8.01,2.09,11.87,.05l15.21-8.16c1.93,.1,3.86-.05,5.78-.35l26.78,33.59c2.74,3.48,6.54,5.62,10.65,6.42,4.92,1,10.24-.05,14.56-3.38,3.9-2.93,6.19-7.26,6.79-11.74,.56-4.43-.66-9.16-2.38-11.24l-22.47-28.26c.66-.35,1.02-.65,1.62-1,.81-.5,1.58-1,2.33-1.55,2.33-1.49,4.41-3.03,5.93-4.43,2.84-2.59,5.32-5.33,7.61-7.71h22.92v10.5h95.23v-93.5l83.78,82.21Z"/></g></g></g></g></svg>