<?xml version="1.0" encoding="UTF-8"?><svg xmlns="http://www.w3.org/2000/svg" viewBox="0 0 425.2 425.61"><defs><style>.b{fill:#e6d7df;}.b,.c,.d{mix-blend-mode:multiply;}.e{fill:#575756;}.f{isolation:isolate;}.g{fill:#68328a;}.c{fill:#d5b7ae;}.h{fill:#9d9d9c;}.i{fill:#fff;mix-blend-mode:soft-light;}.j{fill:#dadada;}.k{fill:#a1a1a1;}.l{fill:#878787;}.m{fill:#251f24;}.n{fill:#bebebe;}.d{fill:#dcdcdc;}.o{fill:#854594;}.p{fill:#352e35;}.q{fill:#c6c6c6;}</style></defs><g class="f"><g id="a"><rect class="g" width="425.2" height="425.2"/><polygon class="c" points="425.2 425.61 271.82 425.61 94.58 312.78 373.39 92.69 425.2 161.95 425.2 425.61"/><g><rect class="l" x="172.96" y="257.83" width="191.95" height="9.25"/><rect class="n" x="160.41" y="150.1" width="20.92" height="125"/><rect class="h" x="172.96" y="92.69" width="200.42" height="169.77"/><polygon class="d" points="363.54 101.03 182.81 101.03 182.81 254.11 363.54 101.03"/><path class="o" d="M167.04,141.21c0-9.15-3.7-12.9-9.5-12.9H89.28c-6.98,0-7.75,2.77-9.1,6.06-1.34,3.29-30.04,73.79-33.05,80.85-3,7.06-3.53,11.77-3.53,17.17v38.88h123.44V141.21Z"/><path class="b" d="M157.54,128.3h-7.16c6.73,23.4,5.48,49.77-3.22,71.08-9.06,22.18-24.46,37.63-46.55,46.78-16.11,6.67-39.26,13.44-57.01,7.05v18.05h123.44V141.21c0-9.15-3.7-12.9-9.5-12.9Z"/><path class="j" d="M157.13,147.54H86.02c-5.04,12.42-21.92,54.04-23.88,59.29-.45,1.21-.78,2.3-1.01,3.28h61.98l8.55-11.08,25.48-4.49v-47.01Z"/><polygon class="i" points="150.72 151.72 89.11 151.72 68.42 203.09 150.72 151.72"/><path class="j" d="M43.6,267.08H373.38c6.43,0,8.97,20.04,0,20.04H43.6c-7.14,0-7.67-20.04,0-20.04Z"/><path class="b" d="M148.06,287.12c.38-2.32,.6-4.71,.6-7.14,0-23.94-19.4-43.34-43.34-43.34s-43.34,19.4-43.34,43.34c0,2.43,.21,4.82,.6,7.14h85.48Z"/><path class="p" d="M148.66,220.02c-.17-3.34-1.37-5.94-2.83-5.94h-14.27c-1.46,0-2.66,2.6-2.83,5.94h19.93Z"/><path class="m" d="M105.32,245.46c-19.07,0-34.52,15.45-34.52,34.52s15.45,34.52,34.52,34.52,34.52-15.45,34.52-34.52-15.45-34.52-34.52-34.52Z"/><path class="q" d="M105.32,302.14c-12.24,0-22.16-9.92-22.16-22.15s9.92-22.16,22.16-22.16,22.16,9.92,22.16,22.16-9.92,22.15-22.16,22.15Z"/><path class="k" d="M105.32,287.06c-3.91,0-7.08-3.17-7.08-7.08s3.17-7.07,7.08-7.07,7.08,3.17,7.08,7.07-3.17,7.08-7.08,7.08Z"/><path class="e" d="M348.75,287.12c.38-2.32,.6-4.71,.6-7.14,0-23.94-19.4-43.34-43.34-43.34s-43.34,19.4-43.34,43.34c0,2.43,.21,4.82,.6,7.14h85.48Z"/><path class="m" d="M306.01,245.46c-19.07,0-34.52,15.45-34.52,34.52s15.45,34.52,34.52,34.52,34.52-15.45,34.52-34.52-15.45-34.52-34.52-34.52Z"/><path class="q" d="M306.01,302.14c-12.24,0-22.15-9.92-22.15-22.15s9.92-22.16,22.15-22.16,22.16,9.92,22.16,22.16-9.92,22.15-22.16,22.15Z"/><path class="k" d="M306.01,287.06c-3.91,0-7.07-3.17-7.07-7.08s3.17-7.07,7.07-7.07,7.08,3.17,7.08,7.07-3.17,7.08-7.08,7.08Z"/></g></g></g></svg>